<?xml version="1.0" standalone="no"?>
<!DOCTYPE svg PUBLIC "-//W3C//DTD SVG 20010904//EN"
 "http://www.w3.org/TR/2001/REC-SVG-20010904/DTD/svg10.dtd">
<svg version="1.0" xmlns="http://www.w3.org/2000/svg"
 width="1026.000000pt" height="1343.000000pt" viewBox="0 0 1026.000000 1343.000000"
 preserveAspectRatio="xMidYMid meet">

<g transform="translate(0.000000,1343.000000) scale(0.100000,-0.100000)"
fill="#000000" stroke="none">
<path d="M5297 13143 c-2 -2 -37 -6 -78 -9 -181 -16 -309 -39 -309 -57 0 -5
-10 -7 -22 -4 -12 3 -46 -3 -77 -13 -30 -11 -68 -20 -83 -20 -15 0 -29 -4 -33
-10 -3 -5 -32 -14 -65 -21 -63 -12 -68 -17 -48 -49 16 -25 3 -38 -22 -22 -23
14 -72 16 -85 3 -6 -5 -66 -21 -135 -36 -69 -15 -145 -34 -170 -42 -47 -16
-105 -58 -105 -77 0 -6 -12 -10 -25 -9 -39 2 -85 -15 -178 -69 -139 -81 -245
-155 -277 -194 -48 -59 -123 -126 -170 -154 -102 -58 -288 -181 -323 -212 -98
-89 -249 -288 -329 -435 -12 -23 -50 -84 -83 -137 -33 -52 -60 -100 -60 -105
0 -5 -4 -11 -9 -13 -13 -4 -148 -261 -205 -388 -42 -95 -165 -474 -206 -638
-22 -86 -51 -236 -65 -332 -13 -96 -28 -195 -32 -220 -9 -55 -8 -49 -17 -135
-4 -38 -12 -86 -16 -105 -5 -19 -12 -73 -15 -120 -4 -47 -10 -98 -15 -115 -5
-16 -12 -126 -15 -244 -5 -218 -8 -250 -26 -401 -15 -121 -62 -309 -99 -395
-5 -11 -13 -36 -19 -55 -5 -19 -20 -71 -32 -115 -13 -44 -29 -88 -37 -97 -9
-11 -17 -55 -22 -120 -6 -78 -13 -112 -29 -139 l-22 -37 23 -35 c13 -20 29
-36 35 -37 15 0 25 -35 21 -70 -2 -17 1 -24 10 -22 8 1 11 -2 7 -8 -3 -6 -11
-8 -16 -5 -5 4 -9 -1 -9 -9 0 -9 -4 -16 -10 -16 -5 0 -10 5 -10 10 0 6 -4 10
-10 10 -5 0 -9 -8 -8 -17 3 -45 -3 -73 -16 -73 -21 0 -31 -21 -15 -31 24 -15
-14 -11 -55 6 -32 14 -40 14 -65 1 -49 -26 -55 -58 -36 -187 9 -63 21 -119 27
-126 5 -7 7 -17 3 -24 -7 -10 0 -29 26 -82 5 -9 6 -29 3 -44 -5 -17 -3 -24 3
-20 6 4 13 0 17 -8 3 -10 -1 -15 -12 -15 -15 -1 -15 -3 3 -16 13 -10 36 -14
68 -12 43 3 48 1 54 -20 3 -13 15 -27 27 -32 22 -8 22 -9 -54 -36 -13 -5 -12
-7 2 -15 11 -6 17 -21 16 -42 -1 -47 12 -98 34 -128 20 -27 19 -40 -7 -150 -6
-21 -3 -27 15 -32 20 -5 22 -10 16 -51 -5 -28 -3 -46 3 -46 5 0 6 -11 2 -27
-6 -24 -2 -32 25 -57 19 -16 31 -33 28 -38 -3 -4 -10 -6 -15 -3 -5 4 -9 2 -9
-4 0 -5 9 -13 21 -16 11 -4 18 -9 15 -12 -6 -6 51 -62 66 -66 19 -4 47 -30 42
-39 -11 -17 7 -70 22 -64 13 5 26 -8 30 -29 2 -10 24 -100 30 -123 2 -7 8 -11
13 -8 5 3 12 -10 15 -29 8 -40 21 -51 41 -35 20 17 62 -17 62 -50 -1 -14 3
-33 7 -42 5 -11 4 -18 -3 -18 -6 0 -11 7 -11 16 0 9 -5 14 -12 12 -26 -9 -17
-28 23 -46 38 -18 41 -20 19 -24 -16 -2 -26 -11 -30 -28 -5 -20 -12 -25 -38
-25 -24 0 -32 -4 -32 -17 0 -10 -4 -18 -10 -18 -5 0 -10 -9 -10 -20 0 -11 -6
-36 -14 -54 -10 -24 -11 -37 -3 -45 7 -7 6 -15 -3 -26 -7 -8 -9 -15 -4 -15 5
0 -6 -14 -25 -30 -32 -30 -51 -32 -51 -4 0 8 -5 14 -11 14 -7 0 -9 -10 -5 -27
14 -56 16 -68 10 -55 -9 20 -21 14 -29 -15 -5 -21 -8 -24 -16 -12 -8 12 -9 12
-9 0 0 -20 -16 -3 -25 27 -5 16 -2 22 9 22 20 0 20 14 1 30 -11 9 -15 9 -15 1
0 -7 -4 -9 -10 -6 -5 3 -10 22 -10 41 0 21 4 33 10 29 6 -3 10 1 10 9 0 9 -7
16 -15 16 -8 0 -15 7 -15 15 0 9 7 18 15 21 8 4 15 13 15 21 0 8 -4 12 -8 9
-4 -2 -6 10 -4 29 3 25 -1 38 -17 51 -12 10 -21 24 -21 30 0 7 -6 14 -12 17
-7 2 -10 8 -6 12 4 4 24 1 45 -6 21 -7 32 -14 26 -16 -22 -8 -14 -22 23 -39
20 -9 41 -28 47 -41 14 -32 27 -29 27 7 0 20 -7 33 -22 41 -13 7 -28 18 -35
25 -11 10 -10 14 5 18 9 3 28 4 42 1 22 -4 23 -3 8 8 -9 7 -18 24 -20 37 -2
19 -10 25 -33 27 -27 2 -28 1 -12 -11 27 -21 0 -36 -62 -34 -51 2 -52 3 -70
43 -10 22 -37 57 -59 77 -23 21 -42 41 -42 46 0 9 -60 93 -84 117 -18 19 -18
18 -13 -50 23 -268 27 -357 23 -480 -5 -159 -17 -243 -50 -365 -13 -47 -27
-98 -30 -115 -30 -139 -36 -173 -34 -195 1 -14 -2 -32 -7 -40 -13 -20 -34
-116 -34 -161 -1 -20 -4 -39 -9 -43 -4 -4 -8 -29 -9 -54 -7 -118 -12 -182 -16
-189 -19 -33 -33 -553 -15 -553 7 0 7 -4 0 -13 -6 -7 -14 -40 -18 -73 -4 -32
-10 -63 -14 -69 -8 -10 -26 -123 -22 -138 1 -5 -5 -50 -14 -100 -9 -51 -17
-99 -17 -107 0 -8 -4 -18 -9 -21 -12 -8 -39 -122 -42 -173 -1 -24 -7 -41 -16
-45 -8 -3 -16 -17 -16 -31 -2 -35 -10 -79 -22 -117 -6 -20 -7 -35 -1 -38 5 -4
3 -16 -5 -28 -14 -22 -25 -70 -31 -137 -9 -94 -27 -219 -36 -255 -6 -22 -19
-80 -29 -130 -17 -83 -37 -150 -60 -200 -19 -42 -100 -329 -100 -353 0 -14
-14 -64 -55 -192 -13 -41 -27 -93 -30 -115 -4 -22 -15 -65 -24 -95 -10 -30
-24 -75 -31 -100 -7 -25 -21 -68 -31 -97 -10 -29 -30 -98 -44 -155 -15 -56
-40 -144 -56 -195 -46 -144 -67 -233 -55 -234 6 -1 22 -1 36 0 20 2 22 0 10
-8 -12 -9 -12 -11 3 -17 18 -7 23 -39 7 -49 -7 -4 -7 -13 0 -26 9 -16 7 -19
-10 -19 -11 0 -20 -4 -20 -8 0 -5 -11 -15 -25 -22 -13 -7 -27 -21 -30 -30 -10
-33 -119 -139 -145 -142 -17 -2 -25 -9 -24 -21 2 -15 -18 -23 -48 -18 -4 0
-12 -8 -18 -19 -6 -11 -19 -20 -29 -20 -22 0 -121 -90 -121 -110 0 -7 -7 -22
-17 -32 -9 -11 -11 -18 -5 -18 7 0 12 5 12 11 0 5 4 8 9 4 5 -3 19 7 30 21 12
15 25 24 29 20 7 -8 8 -13 11 -41 1 -12 19 -15 100 -15 85 0 102 3 125 21 26
20 56 20 56 -1 0 -14 37 -13 42 2 4 12 25 14 153 17 32 1 49 8 78 36 36 34 67
46 67 25 0 -16 30 -12 36 5 9 22 31 18 38 -7 5 -18 8 -20 15 -9 5 8 5 26 -1
43 -8 23 -7 33 4 44 12 12 17 12 33 0 19 -14 19 -15 2 -28 -18 -13 -17 -15 6
-25 20 -10 26 -9 31 3 3 8 -1 14 -10 14 -8 0 -13 4 -10 8 14 23 24 134 14 162
-7 23 -7 34 2 45 16 19 -8 30 -53 22 -30 -5 -33 -3 -32 21 0 24 5 28 39 32 22
3 41 10 43 17 3 7 -3 9 -17 6 -13 -4 -26 1 -34 12 -9 13 -20 16 -39 11 -16 -4
-27 -2 -27 4 0 5 5 10 10 10 6 0 10 9 10 20 0 21 -15 27 -25 9 -4 -6 -13 -8
-21 -5 -7 3 -16 1 -20 -5 -11 -19 -28 -3 -30 29 -2 33 19 45 30 17 9 -23 38
-7 30 18 -5 16 -3 19 11 13 51 -19 66 -18 105 9 21 15 43 24 48 21 5 -3 15 1
22 9 15 18 40 20 41 3 0 -7 4 -4 9 8 6 16 20 23 59 28 28 4 51 10 51 15 0 4
22 6 49 3 31 -3 51 0 56 7 5 9 10 9 20 1 10 -8 25 -4 61 16 35 20 63 27 96 27
29 0 52 5 59 13 14 17 29 9 29 -17 0 -23 9 -24 46 -4 16 8 37 12 46 9 10 -3
23 -2 29 2 12 7 65 7 213 -1 70 -4 86 -12 86 -47 0 -13 8 -18 29 -18 24 0 28
3 24 20 -4 16 0 20 21 20 27 0 37 -24 14 -33 -10 -4 -10 -7 0 -18 10 -11 12
-10 12 5 0 12 5 16 16 12 9 -3 18 -6 20 -6 2 0 4 -9 4 -20 0 -27 16 -25 23 2
6 20 8 21 24 6 23 -20 56 -30 100 -30 27 0 36 -5 43 -24 11 -29 14 -29 38 -4
29 31 51 17 42 -25 -4 -19 -5 -36 -2 -39 12 -13 22 -4 22 19 0 32 16 32 24 0
4 -15 11 -22 19 -19 9 3 18 -9 26 -36 18 -59 34 -51 29 15 -5 63 4 70 28 20
17 -37 38 -45 48 -19 4 11 -1 18 -14 21 -11 3 -18 9 -15 13 8 14 65 -13 65
-31 0 -9 -11 -29 -25 -45 -13 -16 -21 -32 -16 -37 12 -12 38 2 44 24 5 20 27
27 27 8 0 -5 4 -7 10 -4 6 3 7 -1 4 -9 -3 -9 -14 -16 -24 -16 -25 0 -50 -32
-50 -66 -1 -52 -18 -109 -40 -126 -11 -9 -20 -21 -20 -26 0 -6 -12 -12 -27
-14 -14 -2 -28 -8 -30 -14 -2 -6 7 -9 24 -7 42 6 123 -33 124 -60 1 -21 1 -20
9 3 13 40 11 60 -4 60 -22 0 -44 37 -38 65 2 14 8 25 13 25 4 0 9 11 11 24 3
24 3 24 51 8 26 -8 47 -19 47 -23 0 -5 7 -9 15 -9 8 0 15 -4 15 -10 0 -5 -8
-10 -18 -10 -20 0 -72 -22 -72 -31 0 -3 13 -4 30 -1 18 3 30 0 30 -7 0 -6 9
-11 21 -11 17 0 20 4 15 24 -3 15 -1 28 6 32 8 5 10 -16 5 -84 -6 -75 -4 -90
7 -86 8 3 16 28 19 61 6 60 22 88 33 60 3 -9 2 -40 -3 -69 -11 -66 -7 -88 17
-88 10 0 22 -4 25 -10 3 -5 24 -10 47 -10 31 0 41 -4 45 -20 8 -32 40 -25 48
10 7 33 19 39 29 14 4 -10 13 -13 25 -9 10 3 24 -1 31 -10 18 -22 30 -19 30 8
0 13 6 32 14 43 14 17 16 18 31 3 15 -15 14 -18 -10 -47 l-27 -32 46 0 c30 0
46 4 46 13 0 8 2 9 8 1 7 -12 192 -20 192 -9 0 4 -31 36 -68 73 -38 37 -97
100 -131 139 -34 40 -67 73 -72 73 -6 0 -27 19 -47 42 -20 23 -52 56 -70 73
-104 94 -171 165 -191 200 -14 25 -36 47 -60 59 -42 19 -141 109 -141 126 0 5
-9 10 -20 10 -35 0 -80 29 -80 51 0 11 -3 18 -8 16 -13 -8 -54 12 -47 23 4 6
1 17 -5 25 -6 8 -9 19 -5 25 9 15 -15 42 -31 36 -7 -3 -15 0 -18 7 -2 7 -5 0
-5 -15 -1 -18 -6 -28 -16 -28 -8 0 -15 4 -15 8 0 5 -9 18 -21 31 -35 37 -18
54 45 47 48 -6 56 -5 69 14 11 16 16 18 20 8 4 -10 8 -10 16 2 16 23 13 28
-16 32 -25 3 -24 4 17 18 25 8 48 18 51 23 4 6 18 6 36 -1 29 -9 30 -9 31 19
0 22 -5 30 -23 35 -37 9 -59 1 -66 -26 -7 -23 -7 -23 -8 7 -1 17 -4 38 -7 46
-4 11 1 13 20 10 19 -4 26 -1 26 11 0 15 -17 22 -70 28 -25 4 -25 4 7 21 18 9
40 17 51 17 10 0 30 6 46 13 23 10 26 17 22 41 -6 28 -5 28 29 22 20 -4 44 -2
57 5 17 9 24 9 33 -5 7 -9 17 -16 24 -16 6 0 11 -4 11 -10 0 -5 15 -13 32 -18
26 -7 34 -5 40 7 14 34 8 41 -37 41 -33 0 -45 4 -45 15 0 16 36 29 65 23 10
-2 20 3 22 10 3 6 0 12 -7 12 -6 0 -9 4 -6 9 3 5 -1 14 -9 21 -8 7 -15 19 -15
26 0 21 28 17 35 -6 3 -11 10 -20 14 -20 5 0 8 -19 7 -42 -1 -49 17 -61 32
-20 12 36 4 85 -13 78 -21 -8 -12 27 13 49 29 27 28 35 -5 35 -14 0 -24 2 -21
5 2 3 33 2 67 -1 57 -6 62 -9 77 -40 16 -33 37 -44 49 -24 3 5 -1 21 -10 34
-9 14 -14 30 -11 35 10 16 -35 41 -61 35 -16 -4 -23 -2 -23 8 0 10 10 13 33
11 17 -2 39 1 47 7 13 9 13 12 -4 25 -10 8 -24 12 -30 8 -6 -3 -1 5 11 19 l23
24 -30 29 c-36 34 -38 45 -8 45 l21 0 -23 25 c-13 13 -32 27 -43 31 -13 4 -16
9 -9 16 6 6 8 17 5 24 -3 8 0 14 6 14 8 0 10 16 5 51 -5 39 -3 53 7 60 11 6
11 12 3 27 -8 13 -9 24 -2 37 8 13 7 20 -5 26 -9 6 -13 17 -10 29 6 21 8 21
93 -1 25 -6 40 -5 57 7 13 8 29 12 35 8 7 -5 3 -10 -11 -16 -30 -11 -17 -28
21 -28 27 0 30 -2 24 -25 -9 -35 10 -40 59 -15 41 21 75 26 75 11 0 -5 -6 -11
-13 -14 -18 -7 -20 -84 -1 -91 8 -3 14 -12 14 -21 0 -8 7 -15 15 -15 19 0 19
24 0 44 -8 8 -15 21 -15 28 0 8 5 6 11 -5 10 -17 12 -17 35 -2 13 8 24 12 25
8 0 -5 2 -19 5 -31 3 -17 -1 -25 -14 -29 -14 -3 -17 -12 -14 -34 5 -31 19 -38
28 -14 9 21 24 8 24 -21 0 -13 9 -33 19 -43 11 -11 16 -22 13 -26 -4 -3 1 -3
11 1 9 3 17 10 17 16 0 5 15 8 33 6 24 -2 33 -8 35 -25 2 -13 9 -23 16 -23 19
0 66 -39 77 -64 8 -18 9 -16 4 7 -5 23 -3 28 12 25 9 -2 20 -14 23 -28 5 -19
12 -24 29 -22 15 1 21 -2 18 -10 -2 -7 -12 -12 -21 -12 -13 2 -14 -1 -5 -12 6
-8 20 -14 30 -14 11 0 23 -10 29 -25 5 -13 27 -43 49 -67 26 -27 37 -46 31
-53 -5 -6 -8 -24 -8 -40 1 -17 -2 -40 -6 -52 -4 -12 -2 -24 4 -28 6 -4 10 4
10 18 0 28 22 41 39 24 8 -8 16 -6 29 6 10 9 24 17 30 17 18 0 14 -47 -5 -62
-20 -14 -28 -38 -14 -38 5 0 14 7 21 15 15 18 30 11 30 -16 0 -10 5 -19 10
-19 6 0 10 -6 10 -14 0 -7 7 -19 15 -26 12 -10 17 -7 26 16 l11 29 18 -25 c11
-14 26 -33 36 -44 13 -15 14 -20 3 -27 -8 -5 -20 -9 -27 -9 -7 0 -11 -4 -8 -9
6 -10 44 -3 62 10 11 9 77 10 107 2 20 -5 23 -33 4 -33 -7 0 -18 5 -25 12 -19
19 -21 6 -4 -44 16 -51 36 -62 45 -27 7 27 24 21 45 -16 22 -39 31 -45 70 -45
31 0 42 -12 22 -25 -26 -16 -5 -26 49 -23 70 3 83 -4 50 -31 l-24 -19 27 -7
c15 -4 32 -4 38 0 7 4 14 -2 17 -14 6 -23 23 -27 40 -10 8 8 43 9 129 1 65 -6
122 -8 127 -5 5 3 13 0 17 -7 4 -6 32 -12 62 -13 40 -2 55 -6 54 -16 -1 -8 5
-16 12 -18 9 -4 12 3 10 22 -3 30 9 40 31 26 12 -8 12 -12 2 -25 -8 -10 -9
-16 -3 -16 6 0 14 9 17 20 7 23 18 25 44 8 15 -9 29 -8 67 8 l49 20 23 -22 24
-22 -22 -22 c-16 -16 -25 -19 -29 -11 -13 20 -70 -14 -71 -41 0 -16 30 -7 40
12 12 23 30 27 30 6 0 -10 8 -12 32 -7 26 5 34 13 41 41 l9 35 22 -27 c15 -19
27 -26 42 -22 15 4 26 -2 39 -22 l18 -27 13 24 c14 25 18 17 14 -34 -2 -28 14
-57 32 -57 5 0 6 9 3 20 -6 20 9 50 25 50 13 0 18 -38 7 -49 -26 -26 52 -1 86
28 20 17 29 11 32 -23 5 -41 15 -49 36 -30 18 17 20 16 39 -3 12 -13 38 -24
72 -28 29 -4 64 -16 77 -26 13 -11 19 -19 13 -19 -18 0 -22 -29 -5 -45 17 -17
17 -17 -12 -33 -18 -10 -17 -11 12 -12 22 0 37 7 45 20 24 38 47 15 48 -47 0
-13 4 -23 9 -23 21 0 41 13 41 27 0 12 2 12 15 -1 27 -27 18 -50 -25 -64 -22
-6 -46 -12 -53 -12 -7 0 -20 -9 -30 -20 -14 -17 -14 -20 -2 -20 8 0 15 -4 15
-10 0 -5 -4 -10 -10 -10 -5 0 -10 -16 -10 -35 0 -19 5 -35 11 -35 5 0 8 4 4 9
-3 5 0 13 6 16 6 4 19 27 30 52 l19 44 95 -3 c52 -2 95 0 95 4 0 4 9 8 20 8
28 0 25 -20 -2 -21 -13 -1 -26 -1 -31 0 -4 1 -13 -10 -19 -25 -10 -21 -9 -27
3 -35 11 -7 9 -9 -8 -9 -16 0 -23 6 -23 20 0 24 -15 26 -28 5 -4 -9 -21 -19
-38 -24 -29 -8 -31 -14 -20 -58 9 -41 21 -56 33 -41 6 7 13 22 15 33 3 17 12
20 61 23 35 2 57 -1 57 -8 0 -5 -11 -10 -23 -10 -13 0 -26 -3 -29 -6 -13 -12
6 -43 33 -54 16 -7 29 -16 29 -20 0 -5 18 -27 40 -51 21 -23 37 -46 33 -52 -3
-5 3 -6 16 -2 12 4 21 2 21 -4 0 -6 7 -11 15 -11 8 0 15 -8 16 -17 0 -10 2
-33 4 -51 2 -26 -1 -32 -14 -30 -8 2 -17 12 -19 23 -7 44 -11 49 -30 33 -19
-16 -26 -16 -61 -1 -16 6 -20 12 -13 17 7 4 12 15 12 25 0 15 -9 17 -55 17
-30 -1 -55 -4 -55 -8 0 -4 -10 -10 -22 -13 -56 -16 -78 -31 -78 -50 0 -17 2
-17 10 -5 5 8 10 10 10 5 0 -6 -13 -22 -29 -36 -23 -20 -33 -23 -50 -15 -14 6
-21 17 -19 30 2 15 -3 22 -19 24 -13 2 -23 8 -23 13 0 5 -12 9 -27 8 l-28 -1
28 -10 c15 -5 27 -16 27 -23 0 -7 6 -15 12 -17 7 -3 13 -13 13 -24 0 -16 8
-20 46 -22 40 -3 47 0 52 18 7 27 57 29 57 2 0 -16 10 -19 83 -20 l83 -1 -4
30 c-3 23 -1 29 14 29 21 0 48 -35 39 -50 -4 -7 604 -10 1702 -9 939 0 1702 3
1695 6 -6 2 -10 8 -7 13 2 4 -4 15 -15 25 -11 10 -20 22 -20 27 0 5 -9 21 -20
36 -24 32 -18 62 11 62 19 0 19 1 -1 40 -11 21 -20 46 -20 54 0 9 -9 20 -21
26 -11 6 -19 19 -18 28 2 9 -5 35 -15 57 -53 121 -114 307 -135 415 -28 149
-49 311 -52 405 -1 22 -5 54 -9 70 -5 17 -11 72 -15 124 -3 52 -8 97 -10 101
-10 17 -57 610 -71 900 -2 41 -7 110 -12 152 -4 44 -4 85 1 93 5 9 5 24 1 33
-6 15 -10 46 -14 122 -1 14 -8 135 -16 270 -8 135 -22 331 -30 435 -9 105 -18
217 -20 250 -2 33 -9 123 -15 200 -7 77 -10 223 -9 325 8 484 2 884 -15 998
-9 62 -16 145 -15 185 3 137 3 139 -22 135 -16 -2 -22 1 -19 12 2 8 4 22 5 30
1 8 8 35 15 59 7 24 10 54 7 66 -3 12 -2 35 3 52 5 17 10 116 12 219 2 104 7
207 11 229 4 22 12 74 19 115 7 41 18 87 26 102 7 15 13 38 13 52 0 28 11 54
45 111 34 55 73 139 81 172 3 15 16 57 28 93 14 42 22 85 21 120 -2 30 2 60 7
66 4 7 15 38 24 70 8 32 26 85 40 118 88 209 94 250 79 556 -13 274 -6 794 10
821 3 4 7 88 10 186 4 175 -13 408 -34 477 -20 64 -54 329 -71 561 -6 77 -13
154 -15 170 -1 17 -6 62 -10 100 -4 39 -18 115 -32 170 -14 55 -32 132 -40
170 -15 76 -19 88 -52 155 -28 57 -38 74 -80 130 -42 58 -94 161 -131 260 -29
77 -56 128 -137 251 -23 37 -43 69 -43 72 0 28 -112 158 -339 392 -64 67 -141
147 -171 179 -30 32 -77 76 -105 97 -92 71 -182 143 -253 204 -39 33 -104 86
-144 118 -40 31 -100 80 -133 108 -118 99 -181 143 -270 187 -49 25 -135 72
-189 105 -141 84 -172 97 -207 85 -35 -12 -61 -4 -53 16 7 18 -33 31 -72 23
-19 -3 -28 0 -31 13 -5 19 -68 27 -78 10 -10 -16 -41 -11 -68 10 -32 25 -33
25 -40 -2 -6 -20 -8 -21 -24 -6 -10 8 -23 13 -30 11 -7 -2 -10 3 -7 14 4 15
-5 21 -56 35 -54 14 -62 15 -67 1 -3 -8 -1 -18 5 -22 15 -9 27 -81 13 -81 -6
0 -11 9 -11 20 0 11 -7 23 -16 27 -8 3 -14 15 -13 27 3 27 -10 56 -24 56 -6 0
-19 -7 -28 -16 -17 -16 -19 -15 -28 10 -11 27 -35 35 -47 15 -3 -6 -16 -8 -27
-5 -12 3 -27 0 -34 -6 -10 -8 -15 -4 -22 15 -13 32 -42 43 -58 21 -12 -16 -14
-16 -34 1 -11 11 -35 20 -52 21 -18 1 -63 7 -101 13 -38 7 -117 12 -175 12
-58 -1 -124 2 -146 5 -22 3 -56 7 -75 9 -19 1 -42 5 -50 8 -8 2 -35 10 -60 18
-25 7 -50 16 -55 20 -12 9 -321 30 -328 22z m1463 -253 c0 -44 -8 -49 -33 -22
-15 16 -15 20 -1 40 23 33 34 27 34 -18z m-1900 -1059 c0 -19 -3 -32 -6 -28
-9 9 -22 75 -16 82 10 10 22 -19 22 -54z m-145 10 c3 -5 1 -12 -5 -16 -5 -3
-10 1 -10 9 0 18 6 21 15 7z m195 -71 c0 -63 -3 -82 -15 -87 -22 -8 -30 4 -16
21 7 8 10 24 6 35 -3 10 -1 22 5 26 6 3 8 11 4 16 -6 10 4 69 12 69 2 0 4 -36
4 -80z m-112 48 c14 -18 25 -78 14 -78 -9 0 -27 32 -37 68 -7 24 6 30 23 10z
m-53 -56 c6 -22 5 -23 -14 -13 -13 8 -21 22 -21 38 0 24 2 25 14 13 8 -8 17
-26 21 -38z m95 -75 c-1 -21 -1 -21 -15 -3 -8 10 -12 23 -9 28 9 14 24 -2 24
-25z m-60 -3 c0 -8 -5 -12 -10 -9 -6 4 -8 11 -5 16 9 14 15 11 15 -7z m75
-112 c-9 -23 -24 3 -17 30 4 18 6 19 14 4 5 -10 7 -25 3 -34z m35 -162 c0 -5
-2 -10 -4 -10 -3 0 -8 5 -11 10 -3 6 -1 10 4 10 6 0 11 -4 11 -10z m127 -1192
c-3 -8 -6 -5 -6 6 -1 11 2 17 5 13 3 -3 4 -12 1 -19z m139 -222 c9 -3 24 -1
35 4 13 7 25 7 37 1 13 -7 23 -6 31 2 9 9 18 5 39 -18 15 -17 41 -37 57 -45
17 -8 36 -19 43 -24 7 -5 28 -10 45 -10 27 0 32 4 34 27 1 15 -2 27 -8 27 -5
0 -9 5 -9 11 0 15 27 -7 41 -33 7 -14 7 -24 -1 -34 -19 -22 10 -27 75 -14 31
6 59 9 62 6 3 -3 15 1 27 9 24 17 92 20 101 5 5 -8 11 -7 21 1 12 10 21 8 45
-10 17 -13 37 -20 46 -17 9 4 22 1 30 -5 11 -10 18 -7 34 10 15 16 24 19 38
11 10 -5 21 -7 24 -4 3 3 16 -1 29 -10 12 -9 32 -16 44 -16 12 0 25 -7 28 -16
11 -29 39 5 32 39 -5 23 -3 28 12 25 19 -4 31 -58 12 -58 -6 0 -2 -12 9 -27
13 -15 19 -34 16 -45 -7 -20 10 -25 18 -5 4 8 6 7 6 -3 1 -11 10 -16 34 -14
25 1 26 0 5 -3 -35 -5 -38 -33 -4 -33 23 0 51 -22 41 -32 -3 -3 5 -13 16 -24
16 -14 23 -15 26 -6 6 16 23 15 23 -2 0 -17 27 -29 35 -16 4 6 17 3 31 -7 24
-15 25 -15 31 6 l5 22 34 -20 c19 -11 34 -16 34 -11 0 15 66 23 89 11 12 -7
21 -18 21 -26 0 -19 29 -19 36 0 8 21 78 2 110 -30 11 -11 21 -12 33 -5 10 5
21 6 25 3 12 -12 61 -13 84 -1 26 14 43 -1 35 -31 -4 -15 4 -17 62 -15 80 3
123 -9 105 -31 -10 -12 -3 -13 45 -12 53 2 56 2 50 -20 -3 -12 0 -25 6 -28 18
-12 60 5 69 28 l9 22 7 -22 c4 -16 14 -23 30 -23 23 0 24 -3 18 -42 -7 -39 -6
-41 14 -36 12 4 24 3 27 -2 3 -4 24 -5 48 -3 31 4 46 1 56 -11 12 -14 11 -16
-8 -16 -18 0 -20 -3 -11 -19 13 -25 13 -68 0 -76 -17 -10 -11 -25 10 -25 11 0
20 7 20 15 0 8 7 15 15 15 8 0 15 -7 15 -15 0 -11 8 -13 30 -8 25 5 29 3 24
-11 -5 -13 0 -16 24 -16 17 0 33 6 35 13 3 6 6 2 6 -9 1 -18 -6 -22 -49 -28
-84 -11 -61 -23 51 -26 22 -1 26 -5 21 -22 -4 -17 -2 -19 17 -13 11 3 30 4 40
0 29 -9 14 -35 -19 -35 -16 0 -30 -6 -32 -12 -5 -15 13 -68 24 -68 20 0 -7
-30 -32 -35 -26 -6 -61 -33 -46 -36 3 -1 12 -2 19 -3 6 -1 11 -7 10 -14 -2 -8
10 -10 41 -6 40 6 44 5 40 -12 -5 -20 -54 -49 -54 -33 0 5 -7 9 -15 9 -8 0
-15 5 -15 12 0 9 -3 9 -12 0 -15 -15 -48 -16 -48 -2 0 6 -9 10 -20 10 -14 0
-20 -7 -20 -21 0 -30 24 -49 61 -49 l32 0 -7 -51 c-6 -45 -5 -50 11 -47 12 2
17 11 15 26 -5 36 32 59 83 53 18 -2 -19 -21 -42 -21 -19 0 -23 -6 -23 -30 0
-25 4 -30 24 -30 14 0 28 -5 31 -10 4 -6 11 -7 17 -4 6 4 9 1 6 -7 -2 -8 -14
-18 -26 -24 -16 -7 -22 -18 -22 -42 0 -18 5 -33 10 -33 6 0 10 -7 10 -15 0 -8
-6 -15 -12 -15 -10 0 -10 -2 0 -9 20 -13 -18 -75 -49 -79 -13 -2 -28 -10 -32
-18 -4 -8 -15 -14 -22 -14 -17 0 -19 -9 -6 -29 7 -11 14 -10 39 5 25 14 33 15
46 5 20 -17 10 -34 -15 -28 -10 3 -22 1 -25 -4 -9 -16 6 -65 26 -87 23 -24 26
-52 8 -70 -9 -9 -8 -12 5 -12 12 0 17 8 17 30 0 17 5 30 10 30 6 0 10 -24 10
-54 0 -52 -1 -54 -35 -70 -31 -15 -49 -46 -27 -46 5 0 7 -13 4 -30 -3 -18 0
-30 7 -30 16 0 14 -36 -5 -72 -13 -25 -14 -35 -3 -62 7 -17 19 -37 26 -44 15
-16 16 -32 3 -66 -5 -15 -6 -28 0 -31 5 -3 6 -20 3 -38 -3 -24 0 -37 14 -50
19 -16 20 -16 32 9 16 35 36 25 36 -19 1 -38 16 -64 33 -53 10 6 27 73 23 94
-1 9 6 11 26 6 41 -10 41 -13 5 -42 -43 -36 -36 -62 16 -59 28 1 37 -2 40 -15
2 -11 -3 -18 -12 -18 -9 0 -16 5 -16 10 0 6 -7 10 -15 10 -10 0 -15 -10 -15
-28 0 -21 7 -32 28 -42 22 -11 24 -14 9 -18 -10 -2 -24 1 -31 7 -7 6 -27 8
-45 5 -23 -5 -31 -3 -31 7 0 8 -10 14 -25 14 -17 0 -25 -5 -25 -17 0 -18 -6
-19 -90 -23 -14 0 -26 -8 -28 -17 -4 -23 -55 -41 -118 -41 -35 0 -54 -4 -54
-12 0 -6 -30 -22 -67 -34 -38 -13 -77 -27 -88 -32 -11 -5 -42 -11 -70 -14 -27
-2 -63 -7 -80 -10 -64 -12 -100 -13 -113 -3 -9 8 -18 6 -35 -10 -15 -14 -30
-19 -45 -16 -15 4 -24 1 -28 -10 -8 -20 -30 -21 -38 -1 -10 27 -44 18 -51 -15
-4 -16 -10 -30 -13 -31 -30 -3 -47 -10 -50 -18 -2 -6 -9 -11 -16 -11 -6 0 -18
-21 -26 -47 -7 -26 -15 -42 -18 -35 -6 18 -24 14 -56 -12 -18 -15 -27 -30 -23
-39 4 -10 -3 -17 -21 -22 -14 -3 -31 -14 -37 -22 -11 -15 -30 -22 -62 -25 -7
-1 -13 -8 -13 -17 0 -12 3 -12 12 -3 17 17 28 15 28 -7 0 -38 -63 -36 -75 2
-6 20 -7 20 -16 -8 -5 -16 -7 -44 -4 -61 4 -24 1 -33 -14 -40 -18 -8 -19 -12
-6 -49 10 -27 11 -41 4 -46 -6 -3 1 -9 15 -13 30 -7 33 -26 10 -60 -8 -13 -14
-37 -12 -53 3 -23 0 -28 -18 -25 -19 2 -22 -4 -28 -54 -4 -31 -4 -59 -1 -62 3
-3 5 7 5 21 0 15 5 27 10 27 14 0 12 -31 -5 -60 -18 -31 -20 -161 -3 -178 7
-7 25 -12 40 -12 20 0 28 -5 28 -17 -1 -42 -39 -56 -40 -15 -1 12 -5 10 -15
-8 -8 -15 -10 -29 -4 -35 14 -14 11 -36 -7 -49 -16 -12 -9 -51 7 -40 5 3 9 -1
10 -8 0 -7 4 -3 9 10 6 13 18 22 31 22 18 0 20 -4 15 -25 -5 -21 -2 -27 21
-36 22 -8 30 -6 46 10 20 20 20 20 -6 26 -46 12 -19 25 49 25 62 0 64 -1 54
-20 -6 -11 -18 -20 -26 -20 -22 0 -11 -24 12 -28 26 -3 43 38 37 89 -5 35 -2
44 18 62 20 18 24 31 24 77 0 68 -12 92 -32 65 -7 -11 -13 -32 -13 -48 0 -15
-4 -26 -8 -23 -5 3 -9 25 -9 50 -1 39 2 45 23 50 13 4 24 11 24 16 0 6 10 6
26 0 27 -11 44 -6 44 11 0 6 -9 7 -20 4 -12 -4 -26 0 -36 10 -11 10 -20 12
-28 6 -7 -6 -28 -5 -59 2 -33 7 -51 7 -58 0 -7 -7 -2 -9 18 -6 27 4 27 4 8
-12 -11 -9 -21 -21 -21 -28 -1 -7 -2 -19 -3 -27 -1 -19 -20 0 -26 26 -19 92
-21 84 19 84 39 0 41 2 26 31 -8 15 -7 19 5 19 8 0 15 -6 16 -12 0 -10 2 -10
6 0 9 22 25 13 19 -12 -4 -18 -1 -25 13 -29 22 -5 41 10 41 33 0 13 1 13 10 0
8 -13 10 -12 10 3 0 9 -5 17 -11 17 -6 0 -9 10 -7 23 2 18 9 22 38 22 28 1 34
4 32 19 -3 14 3 17 25 14 22 -2 29 -9 33 -32 5 -30 16 -33 35 -11 12 15 55 26
55 15 0 -5 -6 -10 -12 -13 -9 -3 -4 -13 15 -30 33 -31 34 -48 6 -65 -17 -11
-24 -11 -33 -1 -8 9 -8 10 1 5 15 -8 27 10 13 19 -12 7 -50 -22 -50 -37 0 -5
-7 -16 -15 -24 -20 -21 -19 -44 2 -44 12 0 14 -3 6 -11 -22 -22 63 -70 132
-74 66 -5 162 -18 175 -25 9 -5 38 -11 65 -14 26 -3 56 -12 64 -20 17 -14 59
-26 101 -29 14 -1 32 -7 40 -12 8 -5 23 -8 32 -7 10 2 28 -2 40 -9 13 -7 37
-14 53 -15 17 -2 55 -9 85 -18 32 -8 59 -11 64 -6 5 5 19 1 33 -10 17 -13 31
-17 46 -11 14 6 30 3 45 -7 19 -13 25 -13 40 0 12 10 36 13 85 10 63 -3 68 -5
65 -25 -3 -20 2 -22 55 -25 58 -3 61 -5 57 -51 -1 -15 2 -21 9 -16 7 3 10 14
9 23 -2 11 4 17 17 17 16 0 19 -6 17 -30 -1 -16 2 -37 8 -45 9 -13 12 -12 25
4 8 11 15 29 16 40 0 20 0 20 9 -1 8 -18 14 -21 49 -16 44 6 48 2 31 -43 -6
-15 -8 -34 -5 -42 5 -13 7 -13 18 2 8 11 19 15 30 10 14 -5 15 -9 6 -20 -22
-26 17 -54 75 -55 50 -1 51 -1 17 -11 -19 -5 -43 -7 -53 -5 -10 3 -18 1 -18
-4 0 -4 -9 -17 -21 -27 -17 -17 -18 -20 -5 -25 19 -7 46 1 46 14 0 5 6 9 13 9
14 0 20 -57 6 -65 -5 -4 -6 -12 -2 -18 13 -21 12 -56 -3 -68 -12 -10 -11 -14
6 -26 13 -9 19 -21 15 -30 -3 -9 2 -21 12 -29 11 -8 13 -13 6 -14 -22 0 -15
-40 6 -40 32 0 35 -20 4 -21 -27 0 -27 -1 -5 -11 26 -13 27 -21 6 -53 -22 -33
-31 -31 -26 5 4 31 -7 37 -43 24 -14 -6 -14 -8 1 -25 16 -18 16 -20 -1 -33
-17 -12 -17 -13 6 -19 28 -8 16 -24 -21 -29 -17 -2 -26 -10 -28 -26 -3 -17 1
-22 13 -20 11 2 21 -9 30 -29 13 -32 13 -33 -13 -47 -23 -13 -25 -15 -9 -21 9
-4 17 -16 17 -26 0 -15 -7 -19 -32 -19 l-33 -1 28 -15 c19 -10 27 -23 27 -41
0 -14 7 -31 16 -38 14 -10 15 -14 3 -33 -8 -13 -21 -22 -29 -21 -30 3 -38 -1
-43 -23 -6 -21 -7 -21 -25 -5 -25 23 -49 21 -57 -3 -3 -11 -11 -20 -16 -20 -5
0 -9 -5 -9 -10 0 -6 11 -3 25 6 23 15 25 15 31 0 3 -9 4 -25 1 -36 -3 -10 0
-21 7 -24 6 -2 3 -5 -6 -5 -9 -1 -23 6 -32 14 -18 19 -30 19 -23 2 3 -8 2 -19
-3 -26 -6 -10 -11 -10 -28 0 -17 10 -26 10 -48 0 -22 -10 -25 -14 -13 -22 7
-5 30 -6 49 -3 l35 5 -25 -21 c-17 -14 -21 -23 -13 -27 8 -3 11 -14 7 -28 -3
-12 -1 -26 5 -29 17 -11 14 -46 -4 -40 -8 4 -15 15 -15 25 0 10 -4 19 -10 19
-15 0 -29 -35 -23 -59 4 -15 -2 -28 -20 -45 -22 -20 -25 -30 -20 -60 6 -36 5
-36 -25 -30 -31 6 -31 6 -28 -31 2 -22 10 -42 20 -47 9 -5 14 -13 11 -18 -3
-5 -1 -11 5 -15 5 -3 10 -11 10 -17 0 -6 -3 -8 -7 -5 -3 4 -15 -1 -26 -10 -10
-10 -21 -17 -23 -15 -2 1 -19 2 -38 2 -29 0 -37 -5 -50 -32 -25 -49 -21 -69
12 -62 31 6 69 -17 58 -34 -9 -15 -66 -16 -66 -1 0 6 -9 8 -22 3 -34 -10 -50
-26 -40 -36 13 -13 4 -45 -14 -52 -9 -4 -18 4 -24 19 -10 25 -32 35 -27 13 1
-8 -10 -14 -25 -16 -37 -4 -36 -28 2 -35 17 -4 30 -11 30 -17 0 -5 -13 -10
-30 -10 -27 0 -30 -3 -30 -30 0 -34 -24 -45 -90 -38 -60 5 -64 -29 -5 -50 17
-6 24 -11 18 -11 -7 -1 -13 -8 -13 -16 0 -8 -7 -15 -15 -15 -8 0 -14 -3 -14
-8 3 -18 -2 -33 -10 -28 -11 7 -53 -29 -44 -38 3 -3 0 -6 -8 -6 -9 0 -16 12
-17 31 -3 44 -11 53 -32 34 -16 -15 -18 -15 -24 0 -3 9 -4 20 -1 25 3 4 1 19
-4 32 -8 22 -9 22 -15 -10 -8 -34 -26 -41 -46 -17 -9 10 -9 23 -2 42 5 16 6
37 1 48 -4 11 -8 14 -8 8 -1 -7 -8 -13 -17 -13 -11 0 -15 6 -11 19 7 30 -11
53 -41 49 -22 -2 -28 2 -30 19 -4 24 -22 32 -22 11 0 -7 -3 -23 -6 -35 -5 -17
-1 -22 17 -25 26 -4 48 -58 23 -58 -8 0 -14 5 -14 11 0 8 -4 8 -14 0 -21 -18
-117 -3 -123 19 -3 12 -12 16 -29 12 -17 -3 -24 0 -24 12 0 11 9 16 29 16 44
0 44 12 4 51 -34 32 -35 34 -15 37 23 4 25 9 22 55 -1 15 4 27 11 27 8 0 10
-12 6 -39 -4 -29 -1 -41 10 -45 22 -9 36 3 23 19 -18 21 -3 37 20 22 23 -13
26 -37 8 -55 -9 -9 -9 -12 0 -12 7 0 12 5 12 10 0 6 11 10 25 10 14 0 25 5 25
11 0 6 12 10 28 9 48 -4 59 -1 43 9 -8 5 -37 7 -64 4 -46 -6 -49 -5 -43 15 5
14 1 25 -14 35 -16 11 -19 21 -14 41 5 22 3 26 -15 26 -12 0 -21 6 -21 16 0
24 25 43 49 37 17 -4 21 -1 21 21 0 28 -9 33 -27 15 -17 -17 -38 46 -25 76 10
22 8 27 -13 41 -14 9 -23 19 -21 23 2 3 -9 25 -25 49 -16 23 -29 49 -29 57 0
8 -4 15 -9 15 -5 0 -12 13 -16 30 -4 16 -11 32 -16 35 -5 4 -9 14 -9 24 0 10
-9 21 -19 24 -11 3 -22 17 -26 36 -4 18 -13 35 -21 38 -8 3 -14 12 -14 19 0 8
-11 19 -25 24 -18 7 -25 17 -25 35 0 26 -50 85 -72 85 -6 0 -21 12 -34 26 -15
15 -31 23 -42 21 -60 -17 -72 -17 -72 -2 0 8 5 15 11 15 8 0 8 5 -1 15 -7 8
-23 15 -35 15 -31 0 -56 10 -50 20 3 5 14 6 25 3 35 -9 21 11 -19 28 -25 11
-43 13 -49 7 -5 -5 -15 1 -26 16 -9 15 -13 26 -10 26 4 0 -2 8 -12 18 -11 9
-18 25 -16 36 2 11 0 16 -7 12 -6 -4 -11 -3 -11 2 0 5 -19 14 -42 19 -35 9
-38 11 -15 12 15 0 27 6 27 11 0 6 11 10 24 10 14 0 27 4 30 9 9 15 -24 22
-46 10 -32 -17 -57 15 -59 74 -2 51 -12 65 -33 48 -7 -6 -16 -8 -19 -4 -4 3
-7 1 -7 -5 0 -22 2 -27 10 -25 15 4 24 -51 18 -109 -2 -20 -14 -24 -20 -6 -2
6 -9 9 -14 5 -6 -3 -8 -26 -5 -53 5 -40 10 -49 30 -54 21 -5 22 -7 7 -19 -11
-10 -16 -30 -16 -73 0 -40 -4 -60 -14 -64 -10 -4 -12 -18 -8 -50 3 -33 1 -44
-9 -44 -11 0 -11 -2 0 -9 10 -7 19 -4 27 7 7 9 16 14 20 9 4 -4 2 -13 -4 -19
-15 -15 -16 -68 -1 -68 6 0 19 4 29 10 13 7 21 5 31 -6 17 -20 1 -35 -46 -43
l-36 -6 35 -40 c26 -28 37 -52 41 -85 3 -25 8 -60 10 -79 4 -29 2 -32 -16 -28
-27 7 -37 -20 -13 -38 18 -13 18 -14 -7 -23 -15 -6 -29 -18 -32 -26 -4 -9 -16
-16 -27 -16 -23 0 -24 -4 -10 -30 8 -15 5 -20 -22 -29 -24 -9 -34 -8 -40 1 -5
9 -8 6 -8 -10 0 -15 -9 -26 -27 -34 -16 -7 -36 -18 -45 -26 -14 -11 -21 -12
-32 -3 -11 9 -15 8 -20 -4 -3 -9 -14 -15 -23 -13 -10 3 -30 -2 -45 -9 -27 -13
-28 -13 -28 17 0 20 -4 29 -11 24 -6 -3 -8 -17 -5 -30 6 -21 3 -24 -23 -24
-16 0 -33 5 -36 10 -3 6 -19 10 -34 10 -15 0 -32 5 -38 11 -7 7 -34 11 -62 11
-27 -1 -53 3 -56 8 -3 6 -19 10 -35 10 -16 0 -32 5 -35 10 -3 6 -24 10 -45 10
-21 0 -41 6 -43 13 -4 9 -8 9 -16 -2 -8 -12 -14 -13 -36 -3 -14 7 -39 12 -55
12 -17 0 -30 3 -30 8 0 20 -164 -6 -203 -33 -14 -10 -25 -11 -39 -4 -12 6 -18
6 -18 -1 0 -5 -11 -10 -24 -10 -19 0 -25 -5 -24 -23 2 -33 17 -47 50 -47 16 0
39 -5 50 -11 29 -16 180 -28 196 -16 8 6 17 5 28 -3 12 -11 15 -11 12 0 -4 17
95 18 116 1 8 -6 18 -11 22 -10 13 3 124 -51 124 -60 0 -4 19 -14 43 -21 23
-7 47 -19 52 -25 9 -11 58 -25 95 -27 60 -3 259 22 266 33 3 5 19 9 35 9 17 0
40 5 52 11 16 9 22 9 25 0 2 -6 11 -11 19 -11 17 0 63 -45 63 -61 0 -5 5 -9
10 -9 6 0 10 9 10 20 0 17 7 20 39 20 40 0 61 -13 41 -25 -16 -10 -12 -29 9
-42 17 -11 24 -8 48 17 31 33 43 37 43 15 0 -8 -5 -15 -10 -15 -6 0 -14 -10
-19 -23 -7 -18 -22 -26 -66 -36 -64 -15 -69 -33 -9 -41 l39 -5 -40 -20 c-31
-16 -39 -25 -37 -42 4 -26 -15 -31 -24 -8 -6 14 -8 13 -19 -2 -9 -12 -10 -23
-4 -35 5 -10 8 -30 7 -46 -2 -22 -14 -33 -58 -55 -30 -16 -66 -31 -80 -33 -13
-3 -29 -9 -35 -13 -5 -4 -30 -14 -54 -21 -23 -8 -50 -24 -58 -37 -9 -13 -20
-23 -26 -23 -5 0 -16 -8 -23 -17 -11 -15 -16 -16 -31 -6 -50 34 -82 44 -102
34 -30 -17 -52 -13 -79 11 -20 20 -37 24 -113 27 -78 3 -92 1 -105 -15 -11
-14 -17 -15 -20 -6 -8 17 -34 15 -77 -8 -20 -11 -52 -20 -71 -20 -19 0 -36 -4
-38 -10 -1 -5 -22 -11 -46 -13 -24 -1 -46 -8 -50 -14 -4 -6 -25 -14 -47 -18
-22 -4 -49 -15 -60 -25 -13 -11 -46 -20 -89 -25 -67 -7 -121 -29 -111 -45 2
-4 -23 -8 -56 -9 -34 -1 -65 -4 -71 -7 -9 -6 -56 -13 -113 -18 -16 -2 -42 -6
-58 -11 -16 -4 -32 -3 -40 4 -9 7 -17 7 -23 1 -12 -12 -84 6 -84 20 0 6 -7 10
-15 10 -8 0 -15 6 -15 13 0 9 -3 8 -9 -2 -6 -9 -14 -11 -26 -3 -10 5 -27 8
-39 6 -15 -3 -13 0 7 9 15 7 24 16 21 20 -13 12 -35 8 -64 -13 l-29 -20 -3 22
c-4 30 -32 30 -36 1 -2 -13 2 -23 8 -23 6 0 8 -5 4 -11 -4 -6 -20 -8 -40 -4
-28 5 -35 2 -40 -12 -3 -10 -12 -32 -20 -50 -17 -38 -18 -85 -3 -100 7 -7 13
-28 16 -47 3 -36 -1 -40 -39 -37 -9 1 -19 -3 -23 -9 -4 -6 4 -10 20 -10 31 0
91 -43 100 -71 8 -24 26 -24 55 1 15 13 31 18 43 14 16 -5 18 -2 12 15 -10 31
21 39 49 12 12 -12 26 -18 29 -14 4 3 7 3 7 -1 0 -3 -10 -11 -22 -16 -22 -8
-22 -9 4 -9 30 -1 45 -18 31 -32 -17 -17 0 -73 24 -84 13 -5 25 -22 29 -38 3
-15 17 -35 30 -43 13 -9 24 -21 24 -26 0 -5 15 -25 34 -43 19 -18 37 -42 41
-54 3 -11 11 -21 16 -21 5 0 9 -6 9 -12 0 -7 22 -26 49 -43 27 -16 47 -35 44
-42 -2 -6 5 -17 17 -23 12 -6 47 -38 79 -71 32 -32 62 -59 66 -59 5 0 16 -7
26 -16 9 -8 25 -17 35 -18 10 -2 23 -17 29 -36 12 -35 29 -48 40 -31 3 6 15
11 27 11 16 0 19 -5 15 -26 -4 -23 -2 -25 23 -19 42 9 44 -9 4 -24 -31 -11
-35 -16 -32 -44 3 -29 1 -32 -25 -30 -24 2 -28 -2 -25 -19 4 -25 28 -37 28
-14 0 9 8 16 19 16 11 0 21 6 24 13 2 6 8 0 12 -15 6 -25 11 -27 60 -27 28 1
65 -6 81 -14 16 -8 44 -18 62 -22 18 -4 40 -18 48 -31 18 -27 34 -31 34 -9 0
8 -4 15 -10 15 -5 0 -10 9 -10 21 0 16 4 19 18 13 9 -4 36 -9 60 -12 27 -3 42
-9 42 -18 0 -9 11 -14 31 -14 23 0 30 -4 26 -15 -4 -8 -2 -17 4 -21 6 -3 13 4
16 16 6 21 6 21 34 -6 16 -15 30 -26 31 -23 2 2 8 13 14 24 12 22 44 33 44 16
0 -6 -7 -11 -15 -11 -9 0 -15 -9 -15 -25 0 -14 3 -25 7 -25 15 0 41 33 36 46
-6 16 -2 17 21 8 9 -3 16 -12 16 -20 0 -22 70 -30 104 -10 20 12 32 14 40 6 7
-7 4 -10 -9 -10 -17 0 -18 -2 -5 -10 8 -5 36 -10 63 -10 49 0 55 -7 35 -40
-19 -30 8 -45 41 -24 19 13 25 14 32 3 19 -30 5 -44 -46 -47 -27 -2 -58 -10
-67 -19 -10 -8 -24 -13 -33 -9 -11 4 -19 -3 -28 -22 -16 -36 -30 -45 -44 -26
-8 11 -13 12 -18 4 -4 -6 -5 -12 -4 -13 50 -26 71 -64 41 -73 -58 -19 -76 -44
-31 -44 18 0 17 -3 -9 -25 -17 -14 -43 -25 -59 -25 -27 0 -53 -15 -53 -31 0
-7 35 -20 60 -23 8 0 15 -8 15 -16 0 -21 -56 -26 -67 -6 -10 18 -38 22 -38 5
0 -8 -5 -7 -15 1 -21 17 -31 5 -18 -23 25 -50 24 -57 -3 -45 -21 10 -27 8 -40
-10 -9 -14 -26 -22 -42 -22 -21 0 -24 2 -12 10 10 6 11 10 3 10 -7 0 -13 9
-13 20 0 26 -18 25 -46 -1 l-21 -20 -31 30 c-36 37 -52 39 -51 9 0 -29 57 -77
69 -58 10 16 24 -5 16 -25 -9 -25 -39 -17 -81 20 -35 32 -40 34 -46 17 -9 -23
-34 -43 -50 -40 -7 2 -15 -8 -18 -21 -9 -34 -25 -36 -39 -6 -10 22 -9 27 6 31
38 13 62 28 62 41 0 17 -11 16 -39 -4 -22 -15 -25 -15 -37 1 -12 17 -12 17
-16 0 -4 -24 -75 -30 -114 -9 -36 19 -114 21 -96 3 14 -14 16 -48 3 -48 -6 0
-12 4 -16 10 -3 5 -12 7 -21 3 -8 -3 -24 3 -36 13 -21 19 -21 19 -9 -3 15 -29
14 -34 -4 -27 -9 4 -18 -2 -24 -17 -9 -23 -10 -22 -10 9 -1 21 -6 32 -15 32
-9 0 -14 9 -13 20 1 11 5 20 9 20 4 0 8 9 8 20 0 20 -26 26 -82 22 -26 -2 -22
23 5 35 20 10 20 12 4 18 -31 13 -67 -3 -67 -29 0 -33 -28 -42 -39 -13 -10 26
-6 37 15 37 16 0 16 2 9 22 -4 9 -18 12 -45 10 -22 -2 -47 -1 -57 2 -14 6 -14
9 6 29 11 13 21 28 21 33 0 10 -56 34 -79 34 -11 0 -41 23 -41 32 0 4 188 -10
212 -16 24 -6 28 3 18 44 -8 33 -8 34 -9 6 l-1 -28 -77 8 c-43 4 -91 8 -106 8
-20 1 -29 7 -34 24 -7 28 -27 24 -31 -6 -4 -27 -19 -28 -27 -2 -6 20 -35 28
-35 10 0 -15 -74 -12 -96 4 -16 12 -16 15 -4 20 34 11 100 18 175 19 44 0 65
2 48 4 -20 3 -33 10 -33 19 0 10 -13 14 -45 14 -25 0 -45 5 -45 10 0 6 -19 10
-42 10 -24 0 -50 5 -58 10 -23 14 1 44 38 48 17 2 35 9 41 16 16 19 72 8 78
-15 4 -13 14 -19 34 -19 21 0 27 4 23 15 -5 12 3 13 47 8 30 -4 60 -13 68 -20
17 -18 31 -2 31 38 0 34 -8 40 -32 26 -16 -10 -22 -9 -34 7 -14 19 -14 19 -14
-2 0 -18 -6 -22 -32 -22 -18 0 -40 -4 -48 -10 -23 -14 -42 7 -29 32 8 15 13
17 19 8 10 -16 30 -4 30 18 0 10 9 24 20 32 19 14 19 14 0 32 -25 24 -30 23
-30 -6 0 -14 -4 -28 -10 -31 -6 -4 -10 12 -10 40 0 44 1 46 28 43 21 -2 27 1
27 17 0 14 -6 19 -17 17 -10 -2 -18 1 -18 7 0 13 -67 51 -91 51 -10 0 -19 4
-19 8 0 5 10 8 23 8 17 -1 22 5 23 27 1 32 -19 36 -39 7 -17 -24 -27 -16 -27
22 0 15 -4 28 -10 28 -5 0 -10 -4 -10 -10 0 -18 -28 1 -34 23 -4 16 -8 19 -16
11 -14 -14 -2 -64 16 -64 7 0 20 -10 28 -21 13 -19 13 -24 -1 -46 -13 -19 -14
-29 -5 -48 12 -26 27 -32 37 -15 3 6 15 5 30 -2 18 -8 25 -19 25 -39 0 -15 5
-31 10 -34 6 -3 10 -19 10 -36 0 -22 -4 -29 -20 -29 -19 0 -43 36 -34 51 5 8
-152 20 -171 13 -11 -5 -12 -11 -4 -25 9 -18 5 -23 -14 -20 -5 1 -7 -6 -5 -16
5 -27 42 -23 46 5 3 19 9 22 52 22 27 0 52 5 55 10 18 28 36 -8 28 -54 -5 -23
-10 -26 -44 -26 -22 0 -39 5 -39 11 0 7 -9 0 -20 -14 -11 -14 -20 -31 -20 -39
0 -8 -5 -19 -12 -26 -9 -9 -9 -12 0 -12 7 0 12 -9 12 -20 0 -18 5 -19 65 -13
41 4 65 2 65 -4 0 -6 -30 -13 -66 -16 -47 -5 -70 -12 -79 -24 -13 -17 -14 -17
-20 0 -10 25 -34 21 -47 -8 -17 -37 -35 -31 -30 9 4 35 -12 56 -30 38 -6 -6
-10 -22 -10 -36 0 -37 -15 -32 -33 11 -14 32 -14 38 0 53 20 22 19 30 -5 30
-13 0 -20 -7 -20 -20 0 -11 -2 -20 -4 -20 -2 0 -11 -3 -20 -6 -12 -5 -16 0
-16 19 0 16 6 27 17 29 10 2 -7 15 -43 33 -32 16 -61 32 -64 36 -10 13 -80 16
-80 3 0 -6 -7 -14 -15 -18 -11 -4 -15 1 -15 19 0 25 1 25 90 25 53 0 90 -4 90
-10 0 -5 11 -10 25 -10 14 0 25 5 25 10 0 6 -7 10 -16 10 -10 0 -14 7 -12 23
3 23 5 23 118 14 40 -4 61 8 53 29 -8 22 16 44 51 44 17 0 26 4 20 8 -9 5 -8
11 2 20 8 7 14 8 14 2 0 -5 4 -10 9 -10 14 0 23 38 13 55 -7 14 -12 12 -35
-11 -18 -18 -37 -27 -56 -26 -23 0 -31 -5 -35 -23 -3 -13 -3 -32 1 -42 6 -16
5 -17 -13 -3 -10 8 -22 19 -25 23 -3 4 -36 10 -72 12 l-67 5 0 -40 c0 -33 -3
-40 -19 -40 -11 0 -21 4 -23 9 -1 6 -27 13 -55 17 -45 6 -53 4 -53 -10 0 -11
-9 -16 -29 -16 -24 0 -28 3 -24 20 3 12 8 18 11 15 3 -2 12 1 20 7 9 8 38 11
73 10 l59 -3 0 30 c0 30 1 31 45 31 25 0 45 -4 45 -8 0 -9 46 -8 85 2 18 5 25
13 24 29 0 12 -3 16 -6 10 -6 -15 -52 -17 -73 -3 -13 9 -13 12 3 21 21 12 13
29 -14 29 -11 0 -18 -4 -15 -9 15 -23 -7 -41 -50 -41 -32 0 -44 -4 -44 -15 0
-8 -1 -15 -2 -15 -2 0 -25 -7 -51 -15 -32 -9 -45 -10 -41 -3 5 7 2 9 -9 5 -20
-7 -11 21 12 41 12 10 13 15 4 18 -7 3 -13 15 -14 27 0 12 -3 16 -6 10 -9 -24
-22 -13 -35 28 l-12 41 -18 -22 c-22 -27 -29 -22 -31 22 -2 32 -1 33 36 33 36
0 50 16 26 31 -6 3 -9 19 -5 34 5 30 -6 40 -46 40 -17 0 -18 3 -8 15 6 8 15
14 18 13 4 0 15 0 25 1 23 1 22 21 -2 21 -11 0 -21 5 -23 12 -3 7 -14 9 -32 4
-23 -6 -27 -11 -22 -30 7 -29 -44 -72 -63 -53 -18 18 -13 27 19 27 39 0 39 16
-1 22 -19 3 -36 -1 -45 -9 -8 -8 -14 -10 -14 -4 0 6 -7 11 -15 11 -19 0 -19
10 1 38 9 13 13 29 10 37 -4 12 5 15 47 15 41 1 48 3 34 11 -10 6 -31 7 -47 4
-26 -6 -30 -4 -30 14 0 18 6 21 38 21 39 0 71 14 59 26 -3 4 -13 1 -21 -5 -17
-14 -56 5 -56 27 0 10 -6 12 -18 7 -41 -17 -55 -18 -50 -4 3 8 11 14 19 15 8
0 21 4 30 8 9 4 22 6 30 4 8 -2 15 7 17 20 4 28 -18 29 -43 2 -24 -26 -55 -10
-55 29 0 25 -3 27 -30 23 -16 -2 -30 -9 -30 -14 0 -16 -43 -4 -46 13 -1 11 4
15 16 12 10 -3 21 0 24 6 4 6 2 11 -4 11 -6 0 -9 4 -6 9 4 5 4 16 1 23 -5 11
-18 13 -58 7 -29 -3 -54 -5 -55 -3 -2 1 -1 11 2 22 5 14 17 19 48 20 52 2 58
9 50 50 l-7 34 -19 -21 c-24 -26 -31 -26 -57 0 -28 28 -63 17 -55 -17 5 -17 2
-24 -9 -24 -9 0 -15 9 -15 25 0 14 -4 26 -10 26 -5 1 -14 2 -19 3 -6 0 -19 11
-31 24 -18 20 -20 25 -8 39 11 15 10 16 -12 10 -14 -4 -30 -7 -37 -7 -6 0 -9
-9 -6 -21 5 -19 4 -20 -15 -8 -11 7 -19 17 -16 21 8 12 -16 50 -29 45 -6 -2
-14 -14 -17 -28 -13 -55 -52 -3 -51 69 1 14 -5 22 -15 22 -14 0 -15 7 -10 40
5 31 3 40 -8 40 -23 0 -26 -13 -16 -71 7 -45 6 -56 -7 -66 -20 -15 -33 -8 -33
18 0 11 -7 22 -15 25 -8 4 -15 12 -15 20 0 8 7 14 15 14 8 0 15 5 15 10 0 6 0
13 0 18 0 4 -6 7 -13 7 -6 0 -18 4 -25 9 -9 5 -18 1 -27 -10 -20 -27 -26 -14
-19 39 5 37 11 47 25 47 11 0 19 -4 19 -10 0 -5 7 -10 16 -10 13 0 14 -3 5
-13 -12 -15 -5 -27 16 -27 15 0 17 22 4 48 -5 9 -18 36 -30 60 -12 23 -19 42
-14 42 4 0 0 7 -10 15 -12 8 -31 11 -54 8 -19 -3 -38 -2 -42 3 -3 5 -15 14
-25 20 -11 6 -24 19 -30 30 -6 10 -17 23 -23 27 -7 4 -13 13 -13 19 0 6 3 8 6
5 4 -3 15 -2 25 3 24 13 58 -1 72 -30 12 -23 57 -41 57 -23 0 14 -50 63 -64
63 -21 0 -47 45 -34 58 7 7 0 19 -23 40 -32 29 -33 31 -16 49 21 24 22 33 1
33 -9 0 -24 10 -35 23 -10 12 -18 17 -19 11 0 -17 -26 -12 -26 5 -1 69 -5 91
-18 91 -8 0 -21 -9 -29 -21 -16 -22 -31 -12 -16 11 17 29 11 40 -17 30 -19 -8
-25 -7 -22 2 3 7 15 15 29 18 20 5 24 12 24 40 0 30 -3 35 -21 32 -33 -4 -37
23 -6 38 l26 12 -23 17 c-21 16 -21 18 -6 31 9 7 22 28 30 47 8 19 25 37 40
43 27 10 34 30 10 30 -8 0 -24 -5 -35 -12 -22 -14 -39 -3 -22 14 7 7 12 29 12
51 0 33 3 38 22 35 11 -2 23 3 25 10 3 7 -5 12 -21 12 -32 0 -35 29 -6 50 22
16 27 50 7 50 -7 0 -18 -5 -24 -11 -14 -14 -77 -19 -112 -10 -16 5 -25 15 -27
31 -3 22 -2 23 9 9 6 -9 35 -19 62 -23 44 -6 47 -5 26 6 -35 19 -38 38 -7 38
16 0 26 6 26 15 0 8 -9 15 -21 15 -16 0 -19 4 -14 20 8 26 -23 40 -37 16 -12
-21 -28 -11 -28 19 0 16 7 25 25 29 14 4 30 4 35 1 5 -3 9 15 8 41 -1 45 -39
124 -60 124 -5 0 5 12 21 28 17 15 33 39 36 53 6 24 3 27 -29 33 -42 8 -43 9
-16 36 26 26 25 39 -5 50 -27 10 -32 25 -12 34 10 5 10 7 0 12 -28 13 -10 23
38 22 55 0 76 9 41 19 -18 4 -20 8 -11 26 9 16 8 22 -6 29 -15 9 -15 11 -1 27
14 16 14 20 -9 51 -14 19 -23 41 -20 49 8 28 -9 43 -37 32 -32 -12 -43 6 -28
45 6 14 10 36 10 50 0 21 -5 24 -34 24 -33 0 -57 24 -33 32 23 8 66 1 83 -13
16 -12 17 -12 11 4 -4 10 -7 23 -7 28 0 5 -9 9 -21 9 -13 0 -18 4 -12 12 4 7
10 34 13 60 l6 47 -35 9 c-26 7 -30 10 -13 11 39 2 13 21 -28 21 -21 0 -42 5
-46 11 -10 17 17 30 51 24 l30 -5 -32 20 c-38 23 -41 35 -13 50 20 11 27 51
14 84 -8 20 -30 21 -38 1 -3 -8 -17 -15 -31 -15 -19 0 -25 5 -25 23 0 35 15
53 33 39 12 -11 17 -7 26 19 15 43 15 43 -18 20 -29 -21 -30 -21 -36 -2 -7 24
4 73 16 65 5 -3 9 2 9 10 0 9 -6 16 -14 16 -16 0 -26 30 -26 84 0 37 1 38 18
23 10 -10 22 -14 25 -10 12 11 8 72 -8 109 -18 43 -16 49 13 46 14 -2 22 2 22
12 0 8 -10 16 -22 18 -12 2 -23 9 -26 17 -3 8 0 11 6 7 6 -3 14 -1 18 5 8 14
17 98 18 176 1 49 2 52 24 46 18 -4 22 -1 22 20 0 18 8 28 30 37 16 7 27 16
24 21 -3 5 2 16 10 25 9 9 14 20 11 25 -3 4 1 22 10 38 19 37 19 42 0 35 -11
-4 -15 1 -15 17 0 13 -7 37 -15 53 -14 26 -14 31 0 46 14 15 13 19 -5 40 -13
14 -17 27 -11 34 5 6 11 22 13 36 2 18 9 25 26 25 27 1 46 28 39 56 -7 25 17
36 38 19 11 -9 12 -17 5 -30 -15 -27 -12 -50 5 -50 10 0 15 10 15 26 0 22 3
24 14 15 12 -10 15 -8 18 10 4 30 24 35 31 9 5 -18 9 -20 26 -10 16 8 21 8 22
-2 0 -7 4 -4 9 7 7 16 9 13 9 -16 1 -31 5 -37 27 -42 14 -2 31 1 39 9 11 11
14 11 19 -3 5 -12 9 -14 18 -5 7 7 20 12 30 12 24 0 25 -46 1 -54 -10 -3 -5
-4 12 -2 16 2 38 0 48 -6 13 -6 23 -6 33 3 18 15 18 30 -1 23 -8 -4 -15 -2
-15 4 0 5 -10 13 -22 17 -20 6 -18 8 17 15 22 5 58 6 79 3 34 -5 38 -4 33 11
-4 10 -7 30 -7 45 0 22 -6 29 -32 36 -18 6 -32 15 -31 20 3 13 43 15 65 4 11
-6 18 -4 22 6 10 27 -5 45 -38 46 -21 1 -25 3 -11 6 11 3 25 9 32 15 7 6 14 5
18 -2 3 -6 11 -7 17 -4 6 4 14 1 19 -7 6 -10 14 -7 34 15 14 16 32 25 40 22 8
-3 19 2 24 11 7 14 10 13 21 -8 15 -28 29 -39 50 -39 12 1 11 4 -3 14 -28 22
-3 53 47 60 23 3 52 8 66 10 67 14 148 27 173 28 15 0 27 4 27 8 0 4 15 7 33
8 17 1 53 5 79 10 26 5 50 7 54 3 3 -3 60 -7 127 -8 131 -2 247 -14 287 -30
14 -6 62 -16 108 -23 45 -8 82 -17 82 -22 0 -4 6 -8 14 -8 7 0 24 -9 38 -19
13 -11 44 -21 69 -23 24 -2 55 -11 69 -20 23 -15 45 -19 110 -19 14 -1 30 -5
37 -11 7 -5 17 -7 23 -3 5 3 14 -5 20 -20 5 -14 18 -28 27 -31 61 -19 79 -42
44 -51 -13 -3 -18 -11 -14 -21 4 -14 3 -14 -5 -3 -14 19 -38 7 -44 -21 -4 -21
-1 -24 19 -20 27 5 30 -6 6 -24 -16 -12 -12 -13 29 -14 l47 0 -2 -40 c-1 -21
-4 -34 -8 -28 -4 6 -19 8 -33 6 -15 -3 -29 -1 -32 3 -3 5 -13 9 -23 9 -10 0
-24 6 -30 14 -9 11 -19 12 -46 3 -29 -9 -38 -7 -55 8 -20 18 -21 18 -27 -3 -6
-25 -5 -24 -27 -16 -9 3 -16 13 -16 21 0 8 3 12 8 10 4 -3 13 1 20 9 11 12 6
14 -30 13 -24 0 -52 -4 -63 -8 -11 -5 -25 -4 -32 1 -15 12 -33 2 -33 -17 0 -8
-6 -12 -14 -9 -8 3 -12 12 -9 20 3 8 -1 14 -11 14 -9 0 -16 -5 -16 -11 0 -6
-8 -8 -19 -4 -10 3 -38 1 -62 -5 -67 -16 -99 -17 -117 -4 -13 9 -21 9 -39 -3
-16 -11 -35 -13 -65 -9 -24 4 -59 6 -80 6 -21 0 -43 7 -52 16 -13 13 -20 13
-31 4 -9 -7 -32 -10 -57 -7 -44 5 -143 -17 -153 -34 -4 -5 -19 -9 -35 -9 -17
0 -30 -7 -34 -17 -6 -15 -8 -15 -19 1 -12 16 -14 16 -40 -4 -23 -19 -30 -20
-43 -9 -9 7 -31 12 -50 10 -35 -3 -43 6 -22 27 10 10 10 15 -1 21 -21 14 -41
2 -38 -22 3 -32 -40 -37 -45 -5 -2 13 -13 27 -25 33 -29 12 -30 29 -2 20 29
-10 89 3 89 19 0 7 -12 18 -26 24 -21 10 -28 9 -41 -4 -14 -14 -18 -14 -27 -2
-6 7 -18 12 -28 10 -9 -2 -19 2 -23 7 -3 6 -19 11 -36 11 -19 0 -29 5 -29 15
0 15 -52 29 -86 23 -14 -2 -18 2 -17 19 1 11 -4 24 -12 27 -18 6 -21 1 -30
-51 -7 -46 -22 -63 -55 -66 -16 -1 -18 -4 -8 -12 16 -13 21 -35 8 -35 -21 0
-8 -19 20 -29 33 -11 35 -9 20 19 -8 15 -3 26 24 54 38 41 53 40 79 -5 l18
-32 -30 6 c-25 5 -29 3 -34 -21 -3 -15 -1 -28 3 -30 5 -2 6 -10 3 -18 -3 -8 2
-25 11 -39 18 -27 21 -55 6 -55 -5 0 -12 16 -16 35 -3 19 -10 35 -15 35 -12 0
-11 -5 6 -47 20 -47 19 -56 -5 -48 -11 4 -20 2 -20 -4 0 -6 4 -11 10 -11 5 0
18 -19 28 -42 l19 -43 14 30 14 29 5 -34 c6 -39 25 -50 35 -20 10 30 28 12 21
-21 -4 -22 -1 -31 14 -39 11 -6 20 -7 21 -3 0 4 5 -3 10 -16 7 -19 14 -22 37
-18 29 6 62 -12 62 -33 0 -8 9 -11 25 -8 16 3 25 1 25 -7 0 -7 14 -15 30 -18
17 -4 30 -12 30 -20 0 -20 37 -47 65 -47 13 0 27 -5 30 -11 4 -6 13 -8 21 -5
10 4 16 -4 21 -24 6 -32 23 -39 42 -16 14 16 54 9 47 -9 -2 -6 0 -18 5 -26 6
-10 9 -10 9 -1 0 22 28 13 54 -19 23 -26 32 -30 69 -29 63 4 67 2 67 -24 0
-24 3 -25 60 -24 33 0 66 -4 74 -11 7 -6 21 -8 30 -5 9 4 24 0 34 -8 12 -10
38 -14 92 -12 50 1 82 -2 97 -12 19 -12 24 -12 38 2 14 14 20 15 40 4 15 -8
34 -10 52 -5 15 4 72 8 126 10 92 1 97 0 97 -19 1 -18 3 -18 16 7 8 15 23 27
35 27 11 0 31 7 45 17 24 15 25 15 31 -5 4 -15 13 -22 30 -22 21 0 24 4 20 21
-6 24 28 42 54 28 17 -9 106 31 121 55 4 6 8 38 8 71 0 83 7 105 34 102 17 -2
21 3 19 26 -2 24 4 31 35 44 29 12 40 13 56 3 15 -9 20 -9 27 2 11 17 11 26
-1 33 -15 9 -12 35 4 35 11 0 16 14 18 47 3 48 24 71 30 32 5 -35 25 -33 32 3
5 25 2 36 -11 46 -17 13 -17 14 0 27 13 9 17 20 13 33 -4 11 -2 23 4 27 7 5 9
20 5 41 -5 31 -4 34 20 34 15 0 25 -6 25 -14 0 -8 7 -16 15 -20 18 -7 20 26 4
73 -9 25 -17 31 -39 31 -20 0 -29 6 -33 21 -3 11 -11 19 -19 18 -25 -3 -38 1
-38 13 0 6 -7 19 -16 29 -13 14 -13 21 -3 37 11 18 10 24 -5 41 -11 13 -15 27
-11 40 5 16 1 23 -19 31 -14 5 -26 16 -26 23 0 21 -34 47 -61 46 -44 -1 -164
23 -174 36 -6 8 -24 15 -40 17 -21 2 -31 9 -33 24 -3 23 -50 54 -83 54 -12 0
-31 8 -41 17 -12 10 -38 17 -71 19 -55 2 -101 16 -112 33 -3 6 -20 11 -37 11
-34 0 -98 27 -98 42 0 7 -20 8 -54 4 -40 -5 -57 -4 -63 6 -5 8 -31 13 -73 14
-36 1 -85 5 -110 9 -36 6 -49 4 -59 -9 -11 -13 -17 -14 -28 -4 -25 20 -190 18
-245 -3 -30 -12 -86 -21 -147 -24 -55 -3 -112 -10 -126 -15 -14 -6 -41 -10
-58 -10 -51 0 -236 -66 -257 -91 -3 -3 -16 -5 -30 -4 -15 1 -30 -5 -38 -16 -7
-11 -23 -19 -35 -19 -22 1 -22 1 -3 15 11 8 16 15 10 16 -9 1 -20 3 -80 15
-30 6 -31 5 -26 -25 4 -29 2 -31 -27 -31 -19 0 -34 -6 -37 -15 -4 -9 -19 -15
-39 -15 -20 0 -35 -6 -39 -15 -3 -8 -15 -15 -26 -15 -11 0 -20 7 -20 15 0 8 7
15 15 15 8 0 15 7 15 15 0 8 9 15 19 15 49 0 68 30 34 55 -21 16 -10 45 17 45
20 0 27 14 11 24 -12 8 -61 -17 -61 -31 0 -21 -17 -23 -39 -4 -21 19 -29 61
-11 61 6 0 10 5 10 10 0 6 -13 10 -30 10 -30 0 -30 0 -30 -57 0 -32 -5 -65
-11 -73 -9 -12 -10 -11 -6 8 3 12 1 22 -5 22 -5 0 -8 19 -6 43 3 38 1 42 -22
45 -55 6 -70 13 -70 31 0 10 7 21 15 25 18 6 45 -2 45 -15 0 -14 26 -10 40 6
10 13 10 19 -4 33 -9 10 -13 22 -9 25 12 13 23 7 23 -13 0 -22 1 -23 24 -14
33 13 9 74 -28 74 -18 0 -21 16 -5 26 6 3 15 1 19 -6 5 -9 9 -8 13 3 3 8 24
18 47 22 l42 7 -29 18 c-20 12 -29 26 -31 48 -2 32 -2 32 43 32 25 0 44 3 44
8 -1 4 0 10 1 15 1 4 3 13 4 20 0 6 16 14 35 17 31 5 58 30 32 30 -6 0 -11 4
-11 9 0 5 15 9 33 8 41 -1 115 32 97 43 -17 11 9 50 34 50 33 0 97 33 92 47
-3 7 -2 13 3 13 5 0 16 15 25 34 17 36 63 57 76 35 13 -19 32 29 25 61 -3 16
-2 31 4 35 7 3 11 -2 11 -14 0 -27 41 -66 52 -49 6 10 8 10 8 1 0 -24 28 -13
34 13 9 34 0 43 -18 18 -8 -10 -16 -17 -18 -14 -17 27 -34 68 -30 78 6 18 19
14 25 -8 6 -23 32 -26 53 -5 8 8 21 12 29 9 17 -7 21 21 5 31 -5 3 -10 1 -10
-4 0 -17 -27 -13 -34 4 -4 11 2 15 24 15 23 0 31 5 36 25 3 14 10 25 15 25 5
0 9 5 9 11 0 7 7 17 16 24 15 10 15 13 2 25 -18 17 -2 57 25 64 11 3 17 12 15
23 -2 11 2 17 10 15 8 -1 13 5 12 15 -4 36 0 53 13 53 16 0 39 38 31 51 -4 8
-9 7 -15 -2 -7 -11 -9 -9 -9 5 0 29 30 56 62 56 25 0 28 3 22 24 -8 31 4 54
18 35 7 -11 11 -11 15 -1 2 6 11 12 20 12 10 0 13 8 11 28 -3 23 1 27 25 30
17 2 45 20 68 43 21 21 44 39 49 39 6 0 10 7 10 15 0 8 6 15 13 16 6 0 -3 7
-20 15 -38 16 -42 30 -12 39 29 10 70 56 65 75 -2 12 4 15 31 12 20 -3 33 0
33 7 0 6 -7 11 -15 11 -8 0 -15 3 -15 8 0 15 42 43 56 38 9 -3 14 1 14 13 0
15 -5 18 -22 13 -19 -5 -21 -2 -15 28 4 18 7 42 7 54 1 11 14 37 31 56 26 30
32 33 49 22 14 -8 20 -9 20 -1 0 6 -9 13 -20 16 -11 3 -20 13 -20 23 0 9 9 25
20 35 11 10 20 29 20 42 0 30 30 31 31 1 0 -13 3 -17 6 -10 8 19 23 14 23 -8
0 -13 7 -20 19 -20 11 0 28 -3 38 -7 14 -6 13 -1 -7 24 -14 17 -28 28 -32 26
-5 -2 -8 5 -8 16 0 10 -3 21 -7 24 -5 2 -1 2 7 -1 54 -16 53 -16 41 7 -15 28
-6 43 23 35 17 -4 25 1 36 20 10 20 20 25 44 24 17 -1 45 2 61 7 29 8 30 8 13
-12 -10 -11 -18 -23 -18 -26 0 -13 48 -7 60 8 7 8 18 15 25 15 8 0 22 11 33
25 11 14 24 25 29 25 5 0 25 16 44 36 20 21 41 33 51 31 11 -3 19 4 24 22 4
14 6 30 5 35 -1 4 6 14 16 21 15 12 22 11 41 -1 12 -8 22 -10 22 -4 0 5 6 10
14 10 8 0 23 14 33 30 10 17 23 28 29 26 7 -3 20 2 31 9 15 11 19 11 21 0 2
-7 10 -16 18 -19z m-476 -100 c0 -3 -4 -8 -10 -11 -5 -3 -10 -1 -10 4 0 6 5
11 10 11 6 0 10 -2 10 -4z m1730 -206 c0 -5 -4 -10 -10 -10 -5 0 -10 5 -10 10
0 6 5 10 10 10 6 0 10 -4 10 -10z m-2416 -619 c3 -5 -1 -14 -8 -20 -16 -13
-32 2 -21 19 8 12 22 13 29 1z m3775 -90 c7 -5 10 -14 7 -20 -5 -8 -11 -7 -22
3 -24 24 -14 35 15 17z m71 -1 c0 -5 -7 -10 -15 -10 -8 0 -15 5 -15 10 0 6 7
10 15 10 8 0 15 -4 15 -10z m-154 -37 c-10 -10 -19 5 -10 18 6 11 8 11 12 0 2
-7 1 -15 -2 -18z m141 -249 c-3 -3 -12 -4 -19 -1 -8 3 -5 6 6 6 11 1 17 -2 13
-5z m-54 -244 c3 -11 1 -20 -4 -20 -5 0 -9 9 -9 20 0 11 2 20 4 20 2 0 6 -9 9
-20z m-19 -102 c-1 -13 -3 -27 -3 -31 -1 -4 -11 -3 -23 4 -19 10 -19 12 -5 21
10 5 17 16 17 24 0 8 4 13 8 10 5 -3 8 -15 6 -28z m-24 -238 c0 -5 -2 -10 -4
-10 -3 0 -8 5 -11 10 -3 6 -1 10 4 10 6 0 11 -4 11 -10z m25 -80 c3 -5 1 -10
-4 -10 -6 0 -11 5 -11 10 0 6 2 10 4 10 3 0 8 -4 11 -10z m-17 -90 c3 -21 2
-22 -12 -11 -19 16 -21 44 -3 39 6 -3 14 -15 15 -28z m-4741 -32 c-3 -7 -5 -2
-5 12 0 14 2 19 5 13 2 -7 2 -19 0 -25z m4803 -12 c0 -3 -4 -8 -10 -11 -5 -3
-10 -1 -10 4 0 6 5 11 10 11 6 0 10 -2 10 -4z m-20 -43 c0 -10 -4 -24 -9 -31
-7 -11 -10 -10 -15 3 -10 28 -7 45 9 45 8 0 15 -8 15 -17z m-4835 -41 c-8 -39
-35 -51 -35 -16 0 14 5 35 11 46 15 29 33 8 24 -30z m-64 -15 c-10 -9 -11 -8
-5 6 3 10 9 15 12 12 3 -3 0 -11 -7 -18z m-8 -41 c6 -16 -11 -36 -30 -36 -7 0
-13 2 -13 4 0 2 -3 11 -6 19 -5 14 5 20 37 26 4 0 9 -5 12 -13z m5117 -61 c0
-14 -6 -25 -14 -25 -9 0 -12 8 -8 25 2 14 8 25 13 25 5 0 9 -11 9 -25z m-5103
-67 c-3 -7 -5 -2 -5 12 0 14 2 19 5 13 2 -7 2 -19 0 -25z m58 -23 c0 -11 -7
-21 -16 -23 -18 -3 -33 23 -23 39 10 17 39 5 39 -16z m5062 -39 c-21 -22 -22
-21 -25 21 l-2 38 21 -22 c20 -20 21 -23 6 -37z m-5167 24 c0 -5 -4 -10 -10
-10 -5 0 -10 5 -10 10 0 6 5 10 10 10 6 0 10 -4 10 -10z m609 -41 c-27 -21
-45 -24 -54 -9 -3 6 2 13 12 16 10 3 25 9 33 14 27 14 33 -2 9 -21z m-369 11
c0 -13 -30 -13 -50 0 -11 7 -7 10 18 10 17 0 32 -4 32 -10z m-163 -15 c-15 -8
-35 -21 -43 -30 -19 -18 -59 -16 -59 3 0 19 45 40 90 41 l40 1 -28 -15z m4913
-14 c0 -12 -20 -25 -27 -18 -7 7 6 27 18 27 5 0 9 -4 9 -9z m-4792 -13 c-3 -7
-13 -13 -23 -13 -10 0 -20 6 -22 13 -3 7 5 12 22 12 17 0 25 -5 23 -12z m357
-3 l30 -13 -42 1 c-27 1 -43 7 -43 15 0 15 17 15 55 -3z m-615 -5 c0 -5 -4
-10 -10 -10 -5 0 -10 5 -10 10 0 6 5 10 10 10 6 0 10 -4 10 -10z m198 -16 c6
-2 12 -10 12 -18 0 -12 -7 -14 -29 -10 -16 3 -37 1 -48 -5 -14 -9 -11 -10 20
-5 35 6 37 5 37 -20 0 -24 -4 -26 -40 -26 -27 0 -48 7 -62 19 -19 18 -19 21
-4 36 9 9 16 22 16 30 0 10 11 12 43 8 23 -2 48 -6 55 -9z m312 -24 c0 -5 -2
-10 -4 -10 -3 0 -8 5 -11 10 -3 6 -1 10 4 10 6 0 11 -4 11 -10z m-210 -30 l25
-7 -29 -12 c-35 -14 -88 -11 -93 6 -6 18 54 27 97 13z m-160 -50 c0 -5 15 -10
34 -10 19 0 36 -6 39 -12 4 -10 7 -10 18 0 7 6 17 12 21 12 9 0 -1 -51 -11
-60 -11 -9 -11 -30 0 -30 6 0 9 -5 7 -12 -4 -12 -58 -19 -58 -7 0 4 -16 7 -35
6 -19 -1 -35 -5 -35 -9 0 -4 -4 -8 -10 -8 -5 0 -10 7 -10 15 0 8 -9 15 -19 15
-30 0 -35 19 -9 29 18 7 24 5 26 -9 2 -14 15 -19 53 -22 28 -2 49 1 49 7 0 6
3 20 6 33 6 21 4 22 -50 22 -57 0 -67 8 -43 35 14 17 27 19 27 5z m277 -122
c-3 -8 -6 -5 -6 6 -1 11 2 17 5 13 3 -3 4 -12 1 -19z m-417 -53 c0 -8 -4 -15
-10 -15 -5 0 -10 7 -10 15 0 8 5 15 10 15 6 0 10 -7 10 -15z m423 4 c7 0 3 -4
-8 -8 -22 -9 -35 -5 -35 11 0 5 7 7 16 4 9 -3 21 -6 27 -7z m77 -9 c0 -5 -9
-10 -20 -10 -11 0 -20 5 -20 10 0 6 9 10 20 10 11 0 20 -4 20 -10z m-130 -20
c0 -5 -9 -10 -19 -10 -11 0 -23 5 -26 10 -4 6 5 10 19 10 14 0 26 -4 26 -10z
m1967 -12 c-3 -8 -6 -5 -6 6 -1 11 2 17 5 13 3 -3 4 -12 1 -19z m3013 2 c8
-15 15 -18 28 -11 22 12 85 7 90 -7 1 -5 -10 -16 -26 -23 -18 -8 -28 -18 -25
-26 3 -7 0 -13 -6 -13 -6 0 -8 -6 -6 -12 6 -17 -5 -32 -33 -47 -19 -10 -21
-15 -11 -27 10 -13 10 -17 -1 -24 -7 -4 -19 -6 -26 -3 -8 3 -19 -6 -26 -21 -7
-17 -17 -25 -26 -21 -47 18 -62 17 -62 -3 0 -14 -7 -20 -22 -21 -52 -1 -64 -3
-85 -13 -12 -6 -30 -7 -40 -3 -34 15 -167 3 -179 -16 -3 -5 -12 -9 -20 -9 -8
0 -13 4 -10 9 4 5 0 11 -6 14 -18 5 -48 -3 -48 -14 0 -5 -7 -9 -16 -9 -8 0
-12 5 -9 10 3 6 2 10 -4 10 -5 0 -13 -5 -17 -11 -3 -6 -17 -8 -29 -5 -13 3
-26 2 -29 -3 -8 -12 -220 -4 -224 9 -2 5 -12 10 -23 10 -10 0 -26 11 -35 25
-18 28 -44 33 -44 10 0 -18 -26 -20 -36 -3 -4 6 0 16 8 22 8 6 17 19 21 29 3
9 16 17 27 17 11 0 20 6 20 13 0 7 6 22 14 32 13 18 14 18 9 -8 -3 -15 -9 -30
-14 -33 -12 -7 -11 -44 1 -44 6 0 10 10 10 23 0 40 15 53 46 39 21 -10 30 -10
43 1 29 25 95 51 128 50 25 -1 30 2 26 15 -4 9 -2 13 4 9 5 -3 30 0 55 8 26 7
49 11 52 8 3 -4 6 -1 6 5 0 7 15 12 34 12 19 0 37 4 40 9 10 15 76 23 92 10
10 -8 18 -8 27 -1 7 6 53 14 102 18 50 3 95 11 101 16 7 5 28 8 48 6 19 -1 38
1 42 5 15 14 54 6 64 -13z m-3035 -43 c0 -26 -20 -25 -23 2 -3 16 1 22 10 19
7 -3 13 -12 13 -21z m-3342 -7 c-3 -11 -12 -20 -21 -20 -13 0 -12 3 3 20 10
11 19 20 21 20 1 0 0 -9 -3 -20z m3426 -26 c22 -19 24 -25 12 -36 -10 -9 -15
-10 -18 -1 -2 6 -15 24 -29 39 -20 21 -23 29 -12 35 8 5 15 4 17 -3 2 -6 16
-22 30 -34z m-3295 11 c18 -27 10 -32 -19 -12 -10 8 -15 19 -11 25 10 16 11
16 30 -13z m-58 -10 c1 -11 6 -30 9 -42 7 -23 -8 -33 -20 -13 -14 23 -35 9
-35 -22 0 -30 -3 -33 -32 -33 -36 0 -49 20 -18 28 16 4 19 10 14 37 -6 27 -4
31 12 29 26 -5 44 9 37 27 -4 12 -1 15 12 13 10 -2 19 -13 21 -24z m6448 -55
c5 -5 0 -7 -12 -3 -13 3 -28 -2 -38 -12 -14 -13 -19 -14 -25 -3 -19 30 -10 40
29 33 20 -3 41 -10 46 -15z m-2759 -44 c17 -12 17 -13 -8 -18 -34 -7 -58 8
-37 22 20 13 23 12 45 -4z m-412 -3 c-7 -2 -19 -2 -25 0 -7 3 -2 5 12 5 14 0
19 -2 13 -5z m37 -19 c0 -8 -5 -12 -10 -9 -6 4 -8 11 -5 16 9 14 15 11 15 -7z
m-2390 -73 c0 -9 -5 -23 -10 -31 -8 -13 -11 -13 -26 1 -13 13 -14 21 -5 37 13
24 41 19 41 -7z m4470 -19 c20 -16 21 -19 6 -31 -14 -11 -16 -11 -16 3 0 9
-11 21 -25 26 -14 5 -25 12 -25 15 0 12 40 4 60 -13z m-2802 -78 c4 -51 -15
-70 -55 -57 -20 7 -29 18 -34 44 -10 44 5 61 50 57 34 -3 36 -5 39 -44z m136
23 c14 -22 -4 -52 -30 -52 -23 0 -31 39 -13 61 14 17 28 14 43 -9z m-1880 -20
c-3 -66 -5 -77 -12 -77 -5 0 -7 13 -4 29 2 16 -1 32 -7 35 -13 9 -2 38 13 33
6 -2 11 -11 10 -20z m1446 -15 c0 -56 77 -239 110 -262 12 -8 29 -20 38 -27
32 -22 4 -24 -37 -3 -89 45 -191 122 -221 168 -16 25 -30 49 -30 53 0 19 65
80 94 88 46 13 46 13 46 -17z m725 -38 c14 -9 25 -22 25 -30 0 -8 6 -11 15 -8
16 7 39 -37 24 -46 -4 -3 -4 -11 0 -19 6 -10 10 -9 15 4 10 27 26 7 26 -33 0
-27 -6 -41 -20 -50 -12 -7 -18 -17 -15 -23 4 -5 2 -16 -4 -23 -7 -8 -11 -18
-10 -22 4 -24 -4 -33 -31 -39 -29 -6 -165 -23 -240 -29 -19 -2 -48 -6 -64 -11
-53 -15 -18 13 39 31 30 10 55 21 55 26 0 4 14 21 30 36 17 16 30 34 30 40 0
5 6 12 14 15 21 8 47 67 53 122 5 44 17 75 30 75 2 0 15 -7 28 -16z m1880 -4
c3 -5 1 -10 -4 -10 -6 0 -11 5 -11 10 0 6 2 10 4 10 3 0 8 -4 11 -10z m5 -50
c0 -5 -9 -10 -21 -10 -11 0 -17 5 -14 10 3 6 13 10 21 10 8 0 14 -4 14 -10z
m410 -9 c0 -5 -7 -11 -15 -15 -9 -3 -15 0 -15 9 0 8 7 15 15 15 8 0 15 -4 15
-9z m-470 -31 c0 -5 -7 -10 -15 -10 -8 0 -15 5 -15 10 0 6 7 10 15 10 8 0 15
-4 15 -10z m400 -24 c-17 -22 -79 -38 -99 -26 -13 8 -12 10 7 11 12 1 27 3 32
4 6 1 16 3 24 4 7 0 16 11 20 23 4 18 8 20 17 11 9 -9 9 -16 -1 -27z m495 -16
c0 -41 -2 -45 -26 -48 -31 -4 -46 13 -51 52 -2 24 2 31 22 37 47 13 55 7 55
-41z m-1062 33 c-7 -2 -19 -2 -25 0 -7 3 -2 5 12 5 14 0 19 -2 13 -5z m1212
-23 c0 -18 -6 -26 -23 -28 -24 -4 -38 18 -28 44 3 9 15 14 28 12 17 -2 23 -10
23 -28z m-372 13 c3 -5 1 -33 -4 -63 -7 -44 -6 -56 6 -63 8 -4 15 -16 15 -25
0 -9 6 -28 13 -42 19 -37 27 -70 15 -70 -5 0 -53 14 -106 31 -53 17 -103 33
-109 35 -7 2 -10 10 -7 19 4 9 -1 22 -12 30 -11 8 -14 14 -6 15 6 0 22 11 34
25 12 14 29 25 37 25 12 0 13 2 3 8 -9 6 -5 12 13 22 14 7 25 17 25 22 0 5 4
7 9 3 6 -3 13 1 18 8 12 21 48 33 56 20z m-788 -43 c4 -6 -7 -10 -27 -10 -25
0 -29 3 -18 10 19 13 37 13 45 0z m-65 -40 c0 -5 -4 -10 -10 -10 -5 0 -10 5
-10 10 0 6 5 10 10 10 6 0 10 -4 10 -10z m-4310 -4 c0 -3 -4 -8 -10 -11 -5 -3
-10 -1 -10 4 0 6 5 11 10 11 6 0 10 -2 10 -4z m1930 -77 c0 -5 -7 -9 -15 -9
-15 0 -20 12 -9 23 8 8 24 -1 24 -14z m-1950 -74 c0 -16 -27 -32 -37 -21 -7 7
16 36 28 36 5 0 9 -7 9 -15z m4306 4 c3 -6 -1 -18 -10 -27 -15 -15 -16 -14
-16 11 0 27 13 36 26 16z m-3870 -57 c-12 -11 -18 7 -10 30 l8 23 4 -23 c2
-13 1 -26 -2 -30z m3962 -20 c4 -25 -6 -28 -33 -9 -10 8 -15 19 -11 26 12 19
41 8 44 -17z m-3961 -24 c-3 -8 -6 -5 -6 6 -1 11 2 17 5 13 3 -3 4 -12 1 -19z
m4041 -40 c20 1 32 -2 32 -10 0 -17 -49 -40 -64 -31 -17 11 -76 11 -76 0 0 -5
-6 -4 -14 3 -22 18 -8 43 21 37 19 -3 27 1 35 19 l11 24 12 -23 c9 -17 19 -21
43 -19z m-4478 -63 c0 -8 -4 -15 -10 -15 -5 0 -7 7 -4 15 4 8 8 15 10 15 2 0
4 -7 4 -15z m503 -259 c-5 -25 -21 -26 -51 -2 -11 8 -10 11 5 17 37 15 50 10
46 -15z m-33 -70 c0 -8 -4 -17 -9 -20 -10 -7 -23 19 -14 28 11 11 23 6 23 -8z
m5920 -20 c0 -2 -7 -9 -15 -16 -13 -11 -14 -10 -9 4 5 14 24 23 24 12z m-80
-66 c0 -5 -4 -10 -10 -10 -5 0 -10 5 -10 10 0 6 5 10 10 10 6 0 10 -4 10 -10z
m55 0 c3 -5 1 -10 -4 -10 -6 0 -11 5 -11 10 0 6 2 10 4 10 3 0 8 -4 11 -10z
m-6261 -115 c-4 -8 -15 -15 -25 -15 -21 0 -26 16 -6 23 24 10 36 7 31 -8z
m356 -5 c0 -5 -2 -10 -4 -10 -3 0 -8 5 -11 10 -3 6 -1 10 4 10 6 0 11 -4 11
-10z m30 -14 c0 -3 -4 -8 -10 -11 -5 -3 -10 -1 -10 4 0 6 5 11 10 11 6 0 10
-2 10 -4z m-273 -12 c-3 -3 -12 -4 -19 -1 -8 3 -5 6 6 6 11 1 17 -2 13 -5z
m-158 -55 c-5 -10 -17 -18 -27 -18 -15 1 -14 2 1 6 14 4 18 12 14 29 -3 19 -2
22 9 13 10 -8 11 -16 3 -30z m-49 -9 c0 -13 -11 -13 -30 0 -12 8 -11 10 8 10
12 0 22 -4 22 -10z m100 -20 c0 -5 -4 -10 -10 -10 -5 0 -10 5 -10 10 0 6 5 10
10 10 6 0 10 -4 10 -10z m-10 -54 c0 -8 -5 -18 -11 -22 -14 -8 -33 11 -25 25
10 16 36 13 36 -3z m-50 -5 c0 -5 -7 -12 -16 -15 -24 -9 -28 -7 -14 9 14 17
30 20 30 6z m68 -68 c22 -31 37 -86 33 -120 -1 -13 6 -26 19 -33 17 -9 19 -14
9 -26 -6 -8 -18 -14 -25 -14 -17 0 -18 -12 -1 -29 10 -11 9 -14 -1 -18 -7 -3
-19 -11 -27 -19 -17 -18 -107 -22 -113 -5 -2 6 -9 11 -17 11 -7 0 -18 7 -25
15 -7 8 -21 15 -32 15 -15 0 -19 5 -16 18 3 11 2 41 -3 68 -9 57 -2 94 16 94
7 0 15 9 18 20 3 14 14 20 31 20 15 0 29 7 32 15 4 10 20 15 44 15 31 0 43 -6
58 -27z m4276 -52 c8 -12 -13 -18 -42 -13 -18 4 -20 7 -10 13 17 11 45 11 52
0z m-3764 -41 c0 -5 -2 -10 -4 -10 -3 0 -8 5 -11 10 -3 6 -1 10 4 10 6 0 11
-4 11 -10z m3800 -19 c0 -6 -4 -13 -10 -16 -5 -3 -10 1 -10 9 0 9 5 16 10 16
6 0 10 -4 10 -9z m1879 -10 c12 -21 5 -32 -15 -24 -16 6 -19 43 -4 43 5 0 14
-8 19 -19z m-6402 -43 c-3 -7 -5 -2 -5 12 0 14 2 19 5 13 2 -7 2 -19 0 -25z
m6366 -21 c-3 -5 -10 -4 -15 1 -6 6 -7 16 -3 22 6 9 9 9 16 -1 4 -7 5 -17 2
-22z m-6383 -88 c0 -10 -4 -19 -9 -19 -12 0 -23 29 -15 41 8 14 24 0 24 -22z
m4410 11 c0 -5 -2 -10 -4 -10 -3 0 -8 5 -11 10 -3 6 -1 10 4 10 6 0 11 -4 11
-10z m415 -10 c3 -5 -3 -10 -15 -10 -12 0 -18 5 -15 10 3 6 10 10 15 10 5 0
12 -4 15 -10z m-4720 -19 c3 -5 1 -12 -4 -15 -5 -3 -11 1 -15 9 -6 16 9 21 19
6z m615 -12 c0 -5 -4 -9 -10 -9 -5 0 -10 7 -10 16 0 8 5 12 10 9 6 -3 10 -10
10 -16z m4178 -37 c3 -9 -2 -13 -14 -10 -9 1 -19 9 -22 16 -3 9 2 13 14 10 9
-1 19 -9 22 -16z m-4158 -62 c0 -5 -2 -10 -4 -10 -3 0 -8 5 -11 10 -3 6 -1 10
4 10 6 0 11 -4 11 -10z m-710 -39 c0 -26 -15 -34 -39 -21 -26 14 -16 40 15 40
17 0 24 -6 24 -19z m4790 -26 c0 -14 -4 -25 -10 -25 -11 0 -14 33 -3 43 11 11
13 8 13 -18z m-58 -41 c3 -23 0 -34 -9 -34 -7 0 -13 8 -13 19 0 10 -7 24 -15
31 -12 10 -13 15 -4 21 21 13 37 -1 41 -37z m-4052 26 c0 -5 -7 -10 -16 -10
-8 0 -12 5 -9 10 3 6 10 10 16 10 5 0 9 -4 9 -10z m-760 -39 c0 -5 -7 -12 -16
-15 -14 -5 -15 -4 -4 9 14 17 20 19 20 6z m4897 -27 c2 -5 -8 -10 -22 -10 -24
-2 -32 6 -19 18 8 9 37 3 41 -8z m-27 -34 c0 -5 -9 -10 -21 -10 -11 0 -17 5
-14 10 3 6 13 10 21 10 8 0 14 -4 14 -10z m-4816 -21 c14 -11 26 -24 26 -29 0
-11 -69 32 -70 43 0 13 17 8 44 -14z m4709 4 c4 -3 -2 -12 -13 -20 -15 -10
-25 -11 -40 -3 -11 6 -20 15 -20 20 0 11 63 14 73 3z m-4831 -25 c-31 -34 -36
-70 -16 -109 9 -19 23 -38 30 -42 16 -9 19 -63 4 -72 -6 -4 -10 6 -10 24 0 19
-10 40 -26 56 -23 23 -26 33 -22 76 5 47 29 89 51 89 6 0 1 -10 -11 -22z
m4928 -28 c0 -5 -9 -10 -20 -10 -11 0 -20 5 -20 10 0 6 9 10 20 10 11 0 20 -4
20 -10z m-4764 -35 c1 -13 -2 -27 -7 -30 -5 -4 -9 11 -9 31 0 40 12 40 16 -1z
m-16 -75 c-6 -11 -13 -20 -15 -20 -3 0 -5 9 -5 20 0 11 7 20 15 20 13 0 14 -4
5 -20z m6070 -44 c0 -13 -50 -29 -60 -19 -7 6 31 33 47 33 7 0 13 -6 13 -14z
m-5275 -90 c0 -33 -15 -46 -15 -14 0 22 -4 25 -22 21 -19 -4 -20 -3 -8 6 26
19 46 13 45 -13z m-845 -33 c0 -14 -19 -38 -25 -32 -8 8 5 39 16 39 5 0 9 -3
9 -7z m839 -46 c14 -17 4 -27 -26 -27 -21 0 -22 2 -11 20 15 24 22 25 37 7z
m-788 -71 c27 -26 47 -52 44 -56 -3 -4 1 -13 9 -19 10 -9 11 -21 3 -54 -14
-61 -30 -88 -74 -120 -36 -25 -44 -27 -96 -21 -47 6 -65 14 -98 43 -34 31 -41
44 -46 88 -10 93 43 169 139 197 48 14 46 15 119 -58z m4869 14 c12 -8 9 -10
-12 -10 -16 0 -28 5 -28 10 0 13 20 13 40 0z m210 6 c0 -11 -19 -15 -25 -6 -3
5 1 10 9 10 9 0 16 -2 16 -4z m-30 -96 c12 -8 9 -10 -12 -10 -16 0 -28 5 -28
10 0 13 20 13 40 0z m-90 -56 c0 -12 3 -29 6 -38 5 -12 0 -16 -20 -16 -18 0
-30 7 -36 23 -5 12 -9 16 -9 8 -1 -22 -31 7 -31 30 0 16 7 19 45 17 40 -1 45
-4 45 -24z m-163 8 c8 -5 9 -12 2 -22 -8 -13 -10 -13 -19 0 -18 27 -9 39 17
22z m1007 -51 c3 -4 3 -11 0 -14 -8 -8 -34 3 -34 14 0 11 27 12 34 0z m-1164
-5 c0 -18 -15 -36 -31 -36 -21 0 -26 25 -6 33 16 7 37 8 37 3z m233 -10 c23
-18 22 -43 -4 -51 -25 -8 -25 -8 -32 33 -7 35 5 41 36 18z m-273 -56 c0 -5 -2
-10 -4 -10 -3 0 -8 5 -11 10 -3 6 -1 10 4 10 6 0 11 -4 11 -10z m710 -31 c0
-5 -9 -9 -20 -9 -22 0 -23 1 -14 24 5 13 9 14 20 5 8 -6 14 -15 14 -20z m427
-3 c-16 -18 -40 3 -25 22 8 9 14 9 24 1 10 -8 10 -14 1 -23z m-1047 9 c0 -8
-7 -15 -15 -15 -26 0 -18 20 13 29 1 1 2 -6 2 -14z m355 5 c3 -5 1 -10 -4 -10
-6 0 -11 5 -11 10 0 6 2 10 4 10 3 0 8 -4 11 -10z m248 -35 c44 -21 47 -21 47
-4 0 11 5 19 11 19 7 0 8 -14 4 -40 -4 -26 -3 -46 5 -55 7 -8 10 -20 8 -27 -3
-7 6 -18 19 -23 l24 -10 -30 -12 c-28 -10 -31 -9 -31 7 0 29 -11 50 -27 50
-10 0 -14 -10 -13 -37 3 -62 1 -83 -9 -83 -6 0 -8 26 -6 59 4 54 2 59 -21 70
-14 6 -32 11 -41 11 -10 0 -13 6 -9 16 3 9 6 20 6 25 0 5 7 9 15 9 8 0 15 7
15 15 0 10 -11 15 -35 15 -25 0 -35 4 -35 15 0 19 34 12 103 -20z m-669 -6
c36 -21 48 -49 22 -49 -7 0 -19 7 -26 15 -16 19 -37 19 -47 1 -6 -11 -15 -12
-42 -2 -51 16 -49 32 6 44 26 5 49 10 50 11 1 0 18 -8 37 -20z m243 15 c-3 -3
-12 -4 -19 -1 -8 3 -5 6 6 6 11 1 17 -2 13 -5z m138 -4 c3 -5 1 -10 -4 -10 -6
0 -11 5 -11 10 0 6 2 10 4 10 3 0 8 -4 11 -10z m436 -93 c-4 -4 -15 -5 -25 -1
-16 6 -16 8 1 26 16 18 18 18 24 1 4 -10 3 -22 0 -26z m269 -7 c0 -5 -5 -10
-11 -10 -5 0 -7 5 -4 10 3 6 8 10 11 10 2 0 4 -4 4 -10z m-1197 -27 c-7 -2
-21 -2 -30 0 -10 3 -4 5 12 5 17 0 24 -2 18 -5z m2163 -30 c-11 -11 -17 4 -9
23 7 18 8 18 11 1 2 -10 1 -21 -2 -24z m-1106 -63 c0 -5 -4 -10 -9 -10 -6 0
-13 5 -16 10 -3 6 1 10 9 10 9 0 16 -4 16 -10z m-4663 -32 c-3 -8 -6 -5 -6 6
-1 11 2 17 5 13 3 -3 4 -12 1 -19z m3091 -60 c16 -16 15 -38 -2 -38 -13 0 -26
20 -26 41 0 13 14 11 28 -3z m2715 -33 c15 -4 30 -11 33 -16 12 -20 5 -88 -11
-113 -17 -25 -18 -25 -32 -9 -8 10 -12 12 -8 5 9 -18 -4 -52 -21 -52 -8 0 -14
9 -14 20 0 23 -25 27 -34 5 -7 -19 -26 -20 -26 -2 0 8 -10 19 -22 25 -18 8
-19 11 -5 11 21 1 22 17 1 29 -15 8 -15 10 2 23 11 8 21 25 22 39 6 43 58 79
78 55 5 -8 22 -17 37 -20z m74 -67 c-3 -8 -6 -5 -6 6 -1 11 2 17 5 13 3 -3 4
-12 1 -19z m-7417 -78 c0 -5 -4 -10 -10 -10 -5 0 -10 5 -10 10 0 6 5 10 10 10
6 0 10 -4 10 -10z m6088 -178 c2 -7 -3 -12 -12 -12 -9 0 -16 7 -16 16 0 17 22
14 28 -4z m-1200 -23 c2 -5 11 -16 19 -25 17 -17 13 -55 -14 -115 -16 -37 -18
-38 -87 -46 -71 -9 -91 -6 -196 24 -49 15 -74 20 -105 22 -6 1 -16 14 -22 31
-9 23 -8 36 5 64 19 43 50 58 127 63 33 3 61 5 62 6 6 7 209 -17 211 -24z
m1144 -21 c0 -24 2 -56 3 -73 1 -35 -18 -54 -25 -24 -8 33 -25 21 -23 -16 1
-19 -2 -35 -7 -35 -5 0 -7 -7 -4 -15 4 -8 1 -15 -5 -15 -6 0 -11 -7 -11 -16 0
-9 -6 -14 -13 -11 -16 6 -19 -22 -4 -40 13 -18 28 -16 21 2 -8 20 25 32 37 14
5 -8 9 -17 9 -20 0 -7 -46 -26 -74 -31 -27 -4 -32 -28 -7 -35 12 -3 21 -9 21
-13 0 -13 -29 -20 -36 -9 -3 6 -18 15 -32 21 -26 11 -26 12 -4 15 12 3 22 11
22 19 0 23 -59 17 -80 -8 l-19 -23 1 37 c1 20 -4 43 -10 50 -8 10 -2 19 24 36
19 12 34 17 34 12 0 -6 4 -9 9 -6 12 8 2 48 -17 63 -20 17 -8 43 21 43 14 0
35 13 50 30 32 36 62 39 71 8 5 -19 8 -20 16 -8 5 8 7 23 4 33 -7 21 4 57 17
57 5 0 10 -19 11 -42z m-1754 22 c129 0 144 -2 162 -20 23 -23 27 -82 8 -98
-7 -5 -31 -12 -53 -15 -236 -29 -272 -37 -232 -53 32 -12 17 -24 -28 -24 -31
0 -55 7 -74 21 -17 12 -46 22 -72 23 -36 2 -45 6 -47 23 -3 19 1 21 40 17 23
-2 50 -7 60 -10 20 -6 26 20 8 31 -6 3 -9 27 -7 53 2 39 7 47 27 53 14 4 34 6
45 3 11 -2 84 -4 163 -4z m-498 -20 c17 9 125 -1 136 -13 11 -11 -16 -35 -54
-48 -20 -7 -45 -21 -55 -33 -10 -12 -16 -15 -12 -8 4 8 -1 12 -14 12 -15 0
-21 7 -21 23 0 12 -7 31 -15 41 -16 21 -9 44 8 27 6 -6 16 -7 27 -1z m1341 -8
c9 2 14 -7 14 -27 0 -23 -4 -29 -17 -27 -13 2 -18 -4 -18 -22 0 -20 -6 -27
-27 -32 -16 -3 -35 -8 -43 -10 -8 -2 -22 1 -30 6 -8 5 -10 10 -5 10 6 0 3 4
-4 9 -9 6 -22 6 -34 0 -15 -9 -18 -7 -16 8 2 10 0 24 -5 32 -7 10 -1 21 19 38
22 20 35 23 64 19 20 -4 43 -2 51 3 9 6 19 6 26 0 7 -5 18 -8 25 -7z m-1151
-22 c0 -5 -7 -10 -15 -10 -8 0 -15 5 -15 10 0 6 7 10 15 10 8 0 15 -4 15 -10z
m1201 -33 c-17 -17 -24 -1 -9 22 11 18 14 19 16 5 2 -9 -1 -21 -7 -27z m39
-62 c0 -8 -4 -15 -10 -15 -5 0 -10 7 -10 15 0 8 5 15 10 15 6 0 10 -7 10 -15z
m-1640 -19 c0 -22 -34 -76 -47 -76 -17 0 -17 37 0 47 8 4 16 16 20 26 8 20 27
23 27 3z m1568 -17 c-2 -6 -8 -10 -13 -10 -5 0 -11 4 -13 10 -2 6 4 11 13 11
9 0 15 -5 13 -11z m-1458 -47 c-4 -15 -13 -40 -19 -55 -6 -16 -11 -43 -11 -62
0 -39 -28 -75 -41 -53 -23 36 7 141 56 194 16 19 24 6 15 -24z m821 21 c18
-18 0 -35 -31 -28 -16 4 -31 2 -35 -5 -5 -8 -14 -6 -31 4 -32 22 -65 21 -57
-1 5 -13 3 -15 -13 -9 -10 4 -35 10 -55 13 -29 4 -36 9 -32 24 5 16 16 18 124
16 72 -2 123 -7 130 -14z m96 1 c47 -18 51 -25 27 -45 -12 -10 -20 -10 -35 -1
-10 7 -28 12 -39 12 -20 0 -28 28 -13 43 9 10 12 9 60 -9z m-2527 -14 c0 -26
38 -47 46 -25 10 25 24 17 24 -13 0 -16 -8 -36 -19 -46 -16 -15 -19 -15 -31
-1 -7 8 -23 15 -35 15 -18 0 -22 4 -18 20 3 12 -1 22 -11 26 -12 5 -13 10 -5
25 13 26 49 25 49 -1z m2617 -16 c-3 -3 -12 -4 -19 -1 -8 3 -5 6 6 6 11 1 17
-2 13 -5z m-2687 -34 c0 -5 -4 -10 -10 -10 -5 0 -10 5 -10 10 0 6 5 10 10 10
6 0 10 -4 10 -10z m2638 -7 c-10 -2 -28 -2 -40 0 -13 2 -5 4 17 4 22 1 32 -1
23 -4z m-2417 -47 c8 0 25 -13 39 -30 22 -26 22 -29 5 -21 -11 5 -32 9 -47 9
-19 1 -29 7 -32 22 -3 12 -16 24 -28 27 -25 7 -16 23 17 29 13 2 22 -3 26 -17
3 -11 12 -20 20 -19z m1543 12 c-3 -12 -13 -37 -22 -57 -9 -20 -15 -39 -14
-43 1 -5 -5 -8 -13 -8 -17 0 -14 45 5 64 16 16 12 26 -11 26 -19 0 -20 2 -8
16 15 19 50 34 62 27 4 -3 5 -14 1 -25z m139 -11 c8 -21 -28 -112 -44 -112
-20 0 -23 30 -8 81 13 44 41 60 52 31z m-1789 -72 c-4 -8 -8 -15 -10 -15 -2 0
-4 7 -4 15 0 8 4 15 10 15 5 0 7 -7 4 -15z m206 -1 c0 -8 -4 -12 -10 -9 -5 3
-10 10 -10 16 0 5 5 9 10 9 6 0 10 -7 10 -16z m1742 -1 c10 -9 25 -12 37 -8
11 3 35 0 53 -8 36 -15 85 -17 107 -3 8 5 16 4 21 -4 4 -7 14 -10 21 -8 8 3
23 -2 33 -11 18 -15 19 -15 14 7 -5 17 -2 22 13 22 10 0 19 -5 19 -11 0 -6 7
-8 16 -5 10 4 25 -1 36 -11 11 -10 23 -17 27 -15 12 5 12 -39 0 -54 -8 -10
-22 -12 -46 -8 -29 5 -32 4 -27 -11 6 -14 3 -16 -14 -11 -11 4 -23 2 -27 -4
-10 -16 -55 -12 -55 5 0 8 -4 15 -10 15 -5 0 -10 -8 -10 -19 0 -26 -28 -46
-58 -43 -15 3 -22 0 -18 -7 4 -6 14 -11 22 -11 8 0 14 -4 14 -10 0 -5 -15 -10
-34 -10 -19 0 -38 5 -41 10 -3 6 -15 10 -26 10 -11 0 -37 9 -57 19 -20 11 -53
27 -72 36 -31 15 -35 22 -37 58 -2 23 -1 56 2 73 5 27 9 30 43 31 20 1 44 -5
54 -14z m-1845 -17 c-5 -16 -22 -17 -42 -2 -17 12 -16 13 13 12 18 0 31 -5 29
-10z m2483 -41 c0 -8 9 -19 21 -25 20 -11 20 -12 3 -31 -16 -17 -16 -19 -1
-19 10 0 17 -7 17 -15 0 -10 -11 -15 -35 -15 -23 0 -35 5 -35 14 0 8 -7 16
-15 20 -18 7 -20 57 -3 74 17 17 48 15 48 -3z m-137 -2 c7 19 41 -5 45 -32 4
-28 -23 -60 -46 -54 -19 4 -42 47 -42 75 0 15 4 17 19 8 14 -7 21 -6 24 3z
m-621 -38 c-12 -22 -27 -2 -18 22 5 12 10 13 17 6 7 -7 8 -17 1 -28z m-1614
-48 c4 -30 -12 -37 -22 -9 -3 9 -9 23 -12 30 -4 10 0 13 12 10 12 -2 20 -13
22 -31z m61 -70 c0 -21 -1 -21 -9 -2 -12 28 -12 37 0 30 6 -3 10 -16 9 -28z
m-664 -24 c-11 -3 -24 -9 -29 -14 -15 -14 -26 -11 -26 6 0 11 10 15 38 14 21
-1 28 -3 17 -6z m2885 -19 c0 -8 -4 -12 -10 -9 -5 3 -10 10 -10 16 0 5 5 9 10
9 6 0 10 -7 10 -16z m-2015 -12 c26 -18 2 -54 -31 -46 -19 5 -24 2 -24 -14 0
-48 -24 -71 -28 -26 -1 15 -10 33 -19 40 -18 12 -13 26 10 30 42 9 60 14 65
19 7 7 15 6 27 -3z m-96 -106 c-11 -9 -69 -14 -69 -6 0 6 17 10 37 10 20 0 34
-2 32 -4z m20 -75 c-25 -20 -39 -19 -39 3 0 17 42 36 54 25 5 -5 -1 -16 -15
-28z m36 -21 c3 -5 1 -10 -4 -10 -6 0 -11 5 -11 10 0 6 2 10 4 10 3 0 8 -4 11
-10z m1409 -25 c15 -22 15 -28 3 -40 -11 -10 -17 -11 -26 -2 -12 12 -15 50 -4
60 9 10 9 10 27 -18z m-1307 -1 c-3 -3 -12 -4 -19 -1 -8 3 -5 6 6 6 11 1 17
-2 13 -5z m-97 -20 c0 -2 -7 -4 -15 -4 -8 0 -15 4 -15 10 0 5 7 7 15 4 8 -4
15 -8 15 -10z m50 -39 c-7 -8 -16 -12 -21 -9 -13 8 -1 24 18 24 13 0 13 -3 3
-15z m-780 -30 c0 -9 -6 -12 -15 -9 -8 4 -15 10 -15 15 0 5 7 9 15 9 8 0 15
-7 15 -15z m240 5 c0 -5 -5 -10 -11 -10 -5 0 -7 5 -4 10 3 6 8 10 11 10 2 0 4
-4 4 -10z m30 -25 c0 -8 -4 -15 -10 -15 -5 0 -10 7 -10 15 0 8 5 15 10 15 6 0
10 -7 10 -15z m-106 -46 c-3 -5 -10 -7 -15 -3 -5 3 -7 10 -3 15 3 5 10 7 15 3
5 -3 7 -10 3 -15z m50 -4 c3 -8 1 -15 -4 -15 -6 0 -10 7 -10 15 0 8 2 15 4 15
2 0 6 -7 10 -15z m-54 -25 c0 -5 -4 -10 -10 -10 -5 0 -10 5 -10 10 0 6 5 10
10 10 6 0 10 -4 10 -10z m609 1 c9 -6 10 -10 2 -16 -16 -9 -44 2 -36 15 8 12
16 12 34 1z m2227 -47 c-5 -13 -10 -14 -18 -6 -6 6 -8 18 -4 28 5 13 10 14 18
6 6 -6 8 -18 4 -28z m-3086 -20 c0 -13 -4 -24 -9 -24 -10 0 -21 47 -13 54 10
11 22 -6 22 -30z m300 6 c0 -33 -14 -40 -28 -12 -12 21 -5 42 14 42 9 0 14
-11 14 -30z m2865 20 c-3 -5 -10 -10 -16 -10 -5 0 -9 5 -9 10 0 6 7 10 16 10
8 0 12 -4 9 -10z m-2738 -86 c-3 -3 -12 -4 -19 -1 -8 3 -5 6 6 6 11 1 17 -2
13 -5z m-517 -46 c0 -5 -4 -8 -10 -8 -5 0 -10 10 -10 23 0 18 2 19 10 7 5 -8
10 -18 10 -22z m3112 -10 c-9 -9 -15 -9 -24 0 -9 9 -7 12 12 12 19 0 21 -3 12
-12z m6 -54 c12 -8 22 -24 22 -35 0 -16 -7 -19 -41 -19 -23 0 -47 7 -56 15
-14 14 -14 18 2 35 22 24 43 25 73 4z m82 12 c0 -3 -4 -8 -10 -11 -5 -3 -10
-1 -10 4 0 6 5 11 10 11 6 0 10 -2 10 -4z m-1661 -42 c26 -5 31 -11 30 -33 -2
-25 -2 -25 -6 -3 -4 22 -9 24 -59 20 -54 -3 -75 7 -31 15 12 2 25 5 28 6 4 0
21 -2 38 -5z m86 -14 c3 -5 3 -15 -1 -21 -6 -11 -23 6 -24 24 0 10 18 9 25 -3z
m1417 -47 c8 -10 6 -13 -6 -13 -12 0 -16 9 -15 33 1 21 3 25 6 12 3 -11 10
-26 15 -32z m-2455 -25 c-3 -8 -6 -5 -6 6 -1 11 2 17 5 13 3 -3 4 -12 1 -19z
m933 6 c0 -8 -5 -12 -10 -9 -6 4 -8 11 -5 16 9 14 15 11 15 -7z m1593 9 c-7
-2 -19 -2 -25 0 -7 3 -2 5 12 5 14 0 19 -2 13 -5z m-2579 -96 c-3 -9 -10 -17
-15 -17 -11 0 -12 34 -2 44 11 11 24 -9 17 -27z m-54 9 c0 -3 -4 -8 -10 -11
-5 -3 -10 -1 -10 4 0 6 5 11 10 11 6 0 10 -2 10 -4z m2500 -26 c0 -5 -7 -10
-15 -10 -8 0 -15 5 -15 10 0 6 7 10 15 10 8 0 15 -4 15 -10z m-1068 -96 c-13
-23 -25 -1 -16 28 6 19 7 19 16 5 5 -10 5 -23 0 -33z m918 32 c0 -2 -7 -6 -15
-10 -8 -3 -15 -1 -15 4 0 6 7 10 15 10 8 0 15 -2 15 -4z m-630 -41 c0 -8 -4
-15 -10 -15 -5 0 -7 7 -4 15 4 8 8 15 10 15 2 0 4 -7 4 -15z m300 -99 c-28
-28 -50 52 -23 84 18 21 18 20 25 -27 4 -26 3 -52 -2 -57z m169 85 c9 -6 10
-11 2 -15 -13 -8 -31 1 -31 15 0 11 11 11 29 0z m-61 -63 c-6 -18 -28 -21 -28
-4 0 9 7 16 16 16 9 0 14 -5 12 -12z m-277 -70 c-13 -4 -28 -5 -34 -1 -7 4 -2
10 13 13 33 9 50 -1 21 -12z m-2531 -108 c0 -5 -4 -10 -10 -10 -5 0 -10 5 -10
10 0 6 5 10 10 10 6 0 10 -4 10 -10z m-55 -96 c22 -9 0 -24 -34 -24 -24 0 -24
0 -5 15 23 17 19 16 39 9z m1471 -119 c10 -26 -1 -35 -13 -10 -6 14 -7 25 -2
25 5 0 12 -7 15 -15z m-1726 -185 c0 -4 -6 -13 -14 -19 -11 -10 -14 -7 -12 12
0 15 6 23 14 20 6 -3 12 -9 12 -13z m-193 -82 c-3 -8 -6 -5 -6 6 -1 11 2 17 5
13 3 -3 4 -12 1 -19z m3107 -134 c9 -23 8 -24 -12 -24 -26 0 -34 11 -21 27 15
17 26 17 33 -3z m-3133 -234 c20 -11 26 -30 8 -30 -11 0 -39 24 -39 34 0 9 9
7 31 -4z m-1311 -60 c-8 -5 -19 -10 -25 -10 -5 0 -3 5 5 10 8 5 20 10 25 10 6
0 3 -5 -5 -10z m1668 -2 c8 -8 15 -8 27 2 13 11 15 9 15 -14 0 -16 5 -26 15
-26 18 0 18 -5 5 -31 -8 -14 -7 -19 2 -19 9 0 9 -3 -2 -10 -11 -7 -17 -4 -24
13 -5 12 -8 26 -7 30 1 5 -3 5 -9 2 -7 -4 -14 2 -17 14 -3 12 -13 21 -24 21
-19 0 -32 13 -22 24 10 9 28 7 41 -6z m3542 -3 c0 -8 -7 -15 -15 -15 -8 0 -15
7 -15 15 0 8 7 15 15 15 8 0 15 -7 15 -15z m-3400 -5 c0 -5 -11 -10 -25 -10
-14 0 -25 5 -25 10 0 6 11 10 25 10 14 0 25 -4 25 -10z m-1986 -82 c-3 -4 -12
-8 -20 -8 -9 0 -12 -5 -8 -12 4 -7 3 -8 -5 -4 -11 7 -8 18 12 44 8 10 12 10
18 0 4 -6 5 -16 3 -20z m5360 24 c2 -4 1 -14 -4 -21 -10 -17 -31 -5 -23 14 6
16 19 20 27 7z m121 -43 c-11 -17 -35 -9 -35 11 0 18 3 19 20 10 11 -6 18 -15
15 -21z m-5448 -25 c7 -19 -18 -38 -28 -22 -9 14 0 38 12 38 5 0 12 -7 16 -16z
m5513 7 c0 -10 -40 -22 -52 -15 -18 11 -6 24 22 24 17 0 30 -4 30 -9z m-3557
-8 c3 -5 -1 -14 -9 -21 -12 -11 -14 -9 -14 8 0 20 14 27 23 13z m64 -33 c7 0
13 6 13 14 0 23 42 23 67 0 27 -25 29 -49 8 -70 -13 -14 -16 -14 -21 0 -4 11
-14 14 -29 10 -21 -5 -28 -1 -62 40 -7 8 -13 23 -12 33 0 15 2 14 11 -4 6 -13
17 -23 25 -23z m3603 -10 c0 -5 -4 -10 -10 -10 -5 0 -10 5 -10 10 0 6 5 10 10
10 6 0 10 -4 10 -10z m-3685 -21 c4 -5 4 -21 1 -35 -5 -19 -13 -24 -36 -24
-17 0 -30 5 -30 10 0 6 -7 10 -15 10 -9 0 -15 9 -15 25 0 23 4 25 44 25 25 0
48 -5 51 -11z m228 -24 c8 -19 -13 -31 -24 -14 -13 20 -11 29 5 29 8 0 16 -7
19 -15z m3297 0 c0 -8 -7 -15 -15 -15 -8 0 -15 7 -15 15 0 8 7 15 15 15 8 0
15 -7 15 -15z m250 -4 c0 -12 -20 -25 -27 -18 -7 7 6 27 18 27 5 0 9 -4 9 -9z
m-5580 -56 c0 -9 -9 -15 -25 -15 -24 0 -32 10 -18 23 12 13 43 7 43 -8z m1960
-11 c0 -8 -7 -14 -15 -14 -15 0 -21 21 -9 33 10 9 24 -2 24 -19z m40 22 c0 -2
-7 -7 -16 -10 -8 -3 -12 -2 -9 4 6 10 25 14 25 6z m3307 -12 c-3 -3 -12 -4
-19 -1 -8 3 -5 6 6 6 11 1 17 -2 13 -5z m-3243 -19 c3 -8 1 -15 -4 -15 -6 0
-10 7 -10 15 0 8 2 15 4 15 2 0 6 -7 10 -15z m-174 -22 c0 -10 -4 -24 -9 -32
-12 -19 -24 3 -16 29 8 25 25 26 25 3z m248 -4 c-2 -6 -8 -10 -13 -10 -5 0
-11 4 -13 10 -2 6 4 11 13 11 9 0 15 -5 13 -11z m-43 -19 c3 -11 10 -20 15
-20 4 0 6 -9 3 -20 -6 -24 -23 -27 -23 -4 0 9 -7 22 -17 29 -9 7 -13 17 -9 23
11 18 24 14 31 -8z m72 -37 c-3 -3 -11 -2 -17 2 -8 5 -7 11 2 22 12 15 13 14
16 -1 2 -10 1 -20 -1 -23z m-2117 7 c0 -5 -5 -10 -11 -10 -5 0 -7 5 -4 10 3 6
8 10 11 10 2 0 4 -4 4 -10z m2007 -22 c-3 -7 -5 -2 -5 12 0 14 2 19 5 13 2 -7
2 -19 0 -25z m-2102 2 c-3 -5 -13 -10 -21 -10 -8 0 -12 5 -9 10 3 6 13 10 21
10 8 0 12 -4 9 -10z m2025 -43 c0 -29 -5 -58 -12 -65 -9 -9 -1 -12 36 -12 34
0 46 -4 44 -12 -5 -15 -50 -22 -85 -13 -21 5 -24 10 -18 37 5 22 4 29 -5 23
-8 -5 -10 3 -5 32 10 56 13 63 30 63 12 0 15 -12 15 -53z m50 2 c0 -31 -4 -48
-10 -44 -17 11 -12 95 7 95 2 0 3 -23 3 -51z m3410 47 c0 -2 3 -11 6 -20 4
-12 0 -16 -15 -16 -14 0 -21 6 -21 20 0 11 7 20 15 20 8 0 15 -2 15 -4z
m-3336 -113 c-9 -38 -11 -39 -34 -18 -21 19 -17 40 6 31 7 -3 16 -1 19 4 11
18 15 10 9 -17z m-2484 -8 c0 -8 -4 -15 -10 -15 -5 0 -10 7 -10 15 0 8 5 15
10 15 6 0 10 -7 10 -15z m5543 8 c2 -5 7 -21 11 -36 6 -27 6 -27 -16 -15 -13
7 -26 11 -30 10 -11 -3 -10 6 2 29 11 20 26 25 33 12z m279 -15 c-7 -7 -12 -8
-12 -2 0 14 12 26 19 19 2 -3 -1 -11 -7 -17z m58 -18 c0 -5 -5 -10 -11 -10 -5
0 -7 5 -4 10 3 6 8 10 11 10 2 0 4 -4 4 -10z m-236 -9 c3 -4 -1 -17 -9 -27
-13 -18 -15 -18 -31 -2 -9 9 -13 21 -10 27 8 13 43 15 50 2z"/>
<path d="M4970 9891 c0 -5 -3 -16 -6 -25 -4 -11 -1 -16 10 -16 10 0 16 9 16
25 0 14 -4 25 -10 25 -5 0 -10 -4 -10 -9z"/>
<path d="M4880 9800 c-12 -8 -12 -10 2 -15 20 -8 41 2 33 16 -8 11 -16 11 -35
-1z"/>
<path d="M4611 9724 c0 -11 3 -14 6 -6 3 7 2 16 -1 19 -3 4 -6 -2 -5 -13z"/>
<path d="M4610 9685 c-12 -14 -12 -18 1 -25 19 -12 33 4 22 25 -9 15 -11 15
-23 0z"/>
<path d="M4526 9661 c-4 -6 -3 -19 3 -28 9 -17 10 -17 17 0 8 21 -10 45 -20
28z"/>
<path d="M4440 9550 c0 -13 5 -20 13 -17 6 2 12 10 12 17 0 7 -6 15 -12 18 -8
2 -13 -5 -13 -18z"/>
<path d="M7311 9394 c0 -11 3 -14 6 -6 3 7 2 16 -1 19 -3 4 -6 -2 -5 -13z"/>
<path d="M7578 9103 c-10 -2 -18 -8 -18 -13 0 -5 -12 -11 -27 -13 -17 -2 -9
-5 20 -6 51 -1 92 13 82 30 -6 9 -27 10 -57 2z"/>
<path d="M7579 9039 c-12 -8 -12 -10 1 -19 17 -11 32 -8 37 7 5 15 -21 23 -38
12z"/>
<path d="M7478 9023 c6 -2 18 -2 25 0 6 3 1 5 -13 5 -14 0 -19 -2 -12 -5z"/>
<path d="M3945 8830 c3 -5 8 -10 11 -10 2 0 4 5 4 10 0 6 -5 10 -11 10 -5 0
-7 -4 -4 -10z"/>
<path d="M7590 8740 c-13 -8 -13 -11 -1 -19 8 -5 10 -14 6 -22 -5 -8 -4 -11 1
-6 6 6 15 59 9 57 0 0 -7 -5 -15 -10z"/>
<path d="M7620 8340 c0 -11 5 -20 10 -20 6 0 10 9 10 20 0 11 -4 20 -10 20 -5
0 -10 -9 -10 -20z"/>
<path d="M4020 8340 c0 -5 5 -10 10 -10 6 0 10 5 10 10 0 6 -4 10 -10 10 -5 0
-10 -4 -10 -10z"/>
<path d="M3550 8285 c0 -8 5 -15 10 -15 6 0 10 7 10 15 0 8 -4 15 -10 15 -5 0
-10 -7 -10 -15z"/>
<path d="M3520 8249 c0 -11 5 -17 10 -14 6 3 10 13 10 21 0 8 -4 14 -10 14 -5
0 -10 -9 -10 -21z"/>
<path d="M3182 7994 c-7 -8 -8 -15 -2 -19 12 -7 60 5 60 15 0 14 -46 17 -58 4z"/>
<path d="M3086 7961 c-4 -7 -5 -15 -2 -18 9 -9 19 4 14 18 -4 11 -6 11 -12 0z"/>
<path d="M7595 7940 c-4 -6 -3 -16 3 -22 6 -6 12 -6 17 2 4 6 3 16 -3 22 -6 6
-12 6 -17 -2z"/>
<path d="M3128 7913 c-13 -3 -17 -13 -15 -36 2 -29 -1 -32 -29 -35 -31 -3 -32
-4 -27 -43 4 -29 2 -39 -8 -40 -8 0 -3 -5 11 -10 19 -8 27 -6 37 7 11 16 13
13 13 -18 0 -36 22 -58 36 -36 4 7 9 6 15 -3 5 -8 26 -14 51 -14 41 0 43 -1
40 -27 -4 -30 6 -36 26 -16 17 17 15 48 -3 48 -8 0 -15 4 -15 9 0 16 -30 21
-49 9 -15 -9 -22 -8 -36 5 -9 10 -21 15 -26 12 -5 -4 -9 3 -9 15 0 12 -4 19
-8 16 -12 -7 0 55 15 79 10 15 15 17 21 7 11 -16 25 -1 37 36 5 17 12 22 23
17 13 -4 14 -3 6 5 -17 17 -64 1 -64 -21 0 -11 -5 -16 -14 -13 -8 3 -11 15 -8
30 2 13 3 23 1 23 -2 -1 -12 -3 -21 -6z"/>
<path d="M3295 7800 c3 -5 10 -10 16 -10 5 0 9 5 9 10 0 6 -7 10 -16 10 -8 0
-12 -4 -9 -10z"/>
<path d="M3305 7760 c-3 -5 -1 -10 4 -10 6 0 11 5 11 10 0 6 -2 10 -4 10 -3 0
-8 -4 -11 -10z"/>
<path d="M3220 7740 c0 -5 5 -10 10 -10 6 0 10 5 10 10 0 6 -4 10 -10 10 -5 0
-10 -4 -10 -10z"/>
<path d="M3300 7689 c0 -5 5 -7 10 -4 6 3 10 8 10 11 0 2 -4 4 -10 4 -5 0 -10
-5 -10 -11z"/>
<path d="M3356 7681 c-4 -5 -2 -12 3 -15 5 -4 12 -2 15 3 4 5 2 12 -3 15 -5 4
-12 2 -15 -3z"/>
<path d="M3360 7621 c0 -6 5 -13 10 -16 6 -3 10 1 10 9 0 9 -4 16 -10 16 -5 0
-10 -4 -10 -9z"/>
<path d="M3191 7594 c0 -11 3 -14 6 -6 3 7 2 16 -1 19 -3 4 -6 -2 -5 -13z"/>
<path d="M3452 7334 c-6 -7 -12 -18 -12 -24 0 -14 -11 -12 -32 6 -16 16 -18
15 -24 -1 -9 -24 22 -46 53 -39 17 5 23 2 23 -10 0 -9 -4 -16 -10 -16 -5 0
-10 -4 -10 -10 0 -5 14 -10 30 -10 19 0 30 -5 30 -14 0 -12 28 -25 53 -26 14
0 7 22 -20 56 -26 35 -26 35 -5 41 12 3 22 9 22 14 0 5 -12 6 -26 3 -20 -5
-26 -2 -31 14 -6 26 -25 33 -41 16z"/>
<path d="M3590 7200 c0 -25 2 -29 13 -18 8 7 12 20 9 30 -7 29 -22 21 -22 -12z"/>
<path d="M2897 7174 c-4 -4 -7 -14 -7 -23 0 -11 3 -12 11 -4 6 6 10 16 7 23
-2 6 -7 8 -11 4z"/>
<path d="M6338 7164 c-3 -3 -21 -6 -39 -6 -38 -1 -89 -23 -89 -38 0 -13 22
-53 35 -62 6 -4 36 -8 67 -8 55 0 57 1 68 34 14 42 4 86 -19 86 -10 0 -20 -3
-23 -6z"/>
<path d="M2812 7135 c-8 -17 -20 -25 -36 -25 -23 0 -24 -2 -15 -30 10 -28 15
-30 59 -30 27 0 52 5 56 11 4 8 -8 10 -40 8 -25 -2 -46 -1 -46 3 0 3 14 20 31
37 17 17 28 35 24 41 -10 16 -21 12 -33 -15z"/>
<path d="M2942 7148 c6 -18 28 -21 28 -4 0 9 -7 16 -16 16 -9 0 -14 -5 -12
-12z"/>
<path d="M4870 7130 c0 -5 7 -10 15 -10 8 0 15 5 15 10 0 6 -7 10 -15 10 -8 0
-15 -4 -15 -10z"/>
<path d="M4972 7128 c-16 -16 -15 -28 3 -28 8 0 15 2 15 4 0 2 3 11 6 20 7 19
-7 21 -24 4z"/>
<path d="M3076 7121 c-3 -5 3 -11 13 -14 14 -3 18 -1 14 9 -6 16 -19 18 -27 5z"/>
<path d="M3060 7081 c0 -5 9 -7 20 -4 11 3 20 7 20 9 0 2 -9 4 -20 4 -11 0
-20 -4 -20 -9z"/>
<path d="M3745 7080 c-3 -5 1 -10 10 -10 9 0 13 5 10 10 -3 6 -8 10 -10 10 -2
0 -7 -4 -10 -10z"/>
<path d="M2822 7013 c-25 -3 -32 -8 -28 -20 3 -8 6 -19 6 -24 0 -19 28 -8 53
21 15 17 21 29 15 28 -7 0 -28 -3 -46 -5z"/>
<path d="M2894 6997 c-4 -10 -2 -23 3 -28 14 -14 24 13 13 32 -7 11 -10 10
-16 -4z"/>
<path d="M2809 6883 c0 -5 -2 -18 -5 -30 -4 -26 11 -31 20 -7 9 24 7 44 -4 44
-5 0 -10 -3 -11 -7z"/>
<path d="M2787 6814 c-12 -12 4 -24 31 -24 25 0 25 1 6 15 -21 16 -28 18 -37
9z"/>
<path d="M6420 6800 c0 -5 9 -10 19 -10 11 0 23 5 26 10 4 6 -5 10 -19 10 -14
0 -26 -4 -26 -10z"/>
<path d="M5495 6781 c-6 -11 9 -23 19 -14 9 9 7 23 -3 23 -6 0 -12 -4 -16 -9z"/>
<path d="M2744 6719 c-7 -12 15 -31 28 -23 4 3 8 12 8 20 0 17 -26 19 -36 3z"/>
<path d="M2687 6643 c-4 -3 -2 -12 4 -20 9 -10 15 -10 25 -2 8 6 14 15 14 20
0 10 -34 12 -43 2z"/>
<path d="M6805 6460 c-3 -5 1 -10 10 -10 9 0 13 5 10 10 -3 6 -8 10 -10 10 -2
0 -7 -4 -10 -10z"/>
<path d="M6750 6355 c-10 -12 -10 -15 4 -15 9 0 16 7 16 15 0 8 -2 15 -4 15
-2 0 -9 -7 -16 -15z"/>
<path d="M6760 6310 c0 -5 -7 -10 -15 -10 -20 0 -19 -17 1 -28 18 -10 64 -4
64 8 0 5 -3 15 -6 24 -7 17 -44 22 -44 6z"/>
<path d="M2620 6224 c0 -9 5 -14 12 -12 18 6 21 28 4 28 -9 0 -16 -7 -16 -16z"/>
<path d="M6735 6230 c-3 -5 -4 -14 0 -20 8 -13 35 -1 35 16 0 16 -26 19 -35 4z"/>
<path d="M6555 6128 c-11 -5 -25 -20 -32 -33 -10 -23 -9 -25 12 -25 23 0 37
12 48 42 8 22 -3 28 -28 16z"/>
<path d="M8065 6130 c-4 -6 -15 -8 -25 -5 -10 3 -21 1 -25 -5 -3 -5 2 -10 12
-10 29 0 63 12 63 21 0 12 -17 11 -25 -1z"/>
<path d="M2700 6090 c0 -19 3 -21 12 -12 9 9 9 15 0 24 -9 9 -12 7 -12 -12z"/>
<path d="M6582 6047 c1 -19 -4 -42 -11 -51 -13 -15 -15 -14 -25 6 -7 14 -22
24 -39 26 -34 4 -34 -1 -1 -44 29 -37 59 -44 80 -16 12 16 15 16 43 0 38 -21
45 -13 24 26 -9 17 -19 37 -22 45 -4 8 -17 21 -29 29 -22 15 -23 14 -20 -21z"/>
<path d="M6415 6049 c-4 -6 -5 -13 -2 -16 7 -7 27 6 27 18 0 12 -17 12 -25 -2z"/>
<path d="M2800 5920 c0 -5 5 -10 11 -10 5 0 7 5 4 10 -3 6 -8 10 -11 10 -2 0
-4 -4 -4 -10z"/>
<path d="M2730 5908 c0 -18 18 -34 28 -24 3 4 -2 14 -11 23 -16 16 -17 16 -17
1z"/>
<path d="M6556 5894 c-3 -9 -13 -14 -21 -10 -19 7 -32 -14 -15 -24 22 -14 3
-41 -27 -38 -24 3 -27 0 -29 -29 -1 -18 2 -33 7 -33 5 0 12 0 16 0 4 0 8 7 9
16 4 23 20 38 34 29 8 -5 7 -14 -5 -31 -14 -21 -10 -29 13 -21 4 1 6 10 6 20
-1 9 3 17 8 17 5 0 7 13 3 29 -5 25 -2 30 27 44 20 10 26 17 16 17 -10 0 -18
7 -18 15 0 20 -16 19 -24 -1z"/>
<path d="M6440 5860 c0 -5 5 -10 10 -10 6 0 10 5 10 10 0 6 -4 10 -10 10 -5 0
-10 -4 -10 -10z"/>
<path d="M2750 5851 c0 -5 7 -14 15 -21 12 -10 15 -10 15 3 0 8 -7 17 -15 21
-8 3 -15 2 -15 -3z"/>
<path d="M8268 5843 c7 -3 16 -2 19 1 4 3 -2 6 -13 5 -11 0 -14 -3 -6 -6z"/>
<path d="M6500 5685 c0 -8 5 -15 10 -15 6 0 10 -9 10 -19 0 -11 5 -23 10 -26
17 -10 24 25 10 51 -15 27 -40 33 -40 9z"/>
<path d="M6453 5665 c16 -9 31 -14 35 -11 8 9 0 14 -33 21 l-30 6 28 -16z"/>
<path d="M2791 5584 c0 -11 3 -14 6 -6 3 7 2 16 -1 19 -3 4 -6 -2 -5 -13z"/>
<path d="M6536 5585 c-14 -11 -17 -21 -11 -42 7 -27 8 -27 17 -6 6 12 19 23
29 26 13 3 17 11 13 21 -8 20 -23 20 -48 1z"/>
<path d="M2850 5425 c0 -14 5 -25 10 -25 6 0 10 11 10 25 0 14 -4 25 -10 25
-5 0 -10 -11 -10 -25z"/>
<path d="M8360 5360 c0 -5 5 -10 11 -10 5 0 7 5 4 10 -3 6 -8 10 -11 10 -2 0
-4 -4 -4 -10z"/>
<path d="M2819 5210 c24 -21 41 -19 41 6 0 9 -11 14 -32 14 l-33 -1 24 -19z"/>
<path d="M6380 5198 c1 -31 1 -32 15 -14 19 25 19 46 0 46 -10 0 -15 -10 -15
-32z"/>
<path d="M2915 5211 c-7 -12 12 -24 25 -16 11 7 4 25 -10 25 -5 0 -11 -4 -15
-9z"/>
<path d="M2855 5160 c10 -32 13 -36 25 -24 7 7 3 17 -11 30 -22 19 -22 19 -14
-6z"/>
<path d="M8340 5140 c0 -11 4 -20 9 -20 17 0 19 15 5 28 -12 11 -14 9 -14 -8z"/>
<path d="M2965 5100 c4 -6 11 -8 16 -5 14 9 11 15 -7 15 -8 0 -12 -5 -9 -10z"/>
<path d="M2913 5093 c9 -2 23 -2 30 0 6 3 -1 5 -18 5 -16 0 -22 -2 -12 -5z"/>
<path d="M2880 5071 c0 -6 5 -13 10 -16 6 -3 10 1 10 9 0 9 -4 16 -10 16 -5 0
-10 -4 -10 -9z"/>
<path d="M2890 5030 c-11 -7 -7 -10 18 -10 17 0 32 5 32 10 0 13 -30 13 -50 0z"/>
<path d="M2850 5019 c0 -5 5 -7 10 -4 6 3 10 8 10 11 0 2 -4 4 -10 4 -5 0 -10
-5 -10 -11z"/>
<path d="M2880 4954 c0 -8 9 -14 19 -14 30 0 34 17 6 22 -17 4 -25 1 -25 -8z"/>
<path d="M5087 4763 c-14 -13 -6 -43 19 -70 20 -21 24 -23 18 -8 -4 11 -9 35
-12 53 -4 31 -12 39 -25 25z"/>
<path d="M2965 4610 c-3 -5 -1 -10 4 -10 6 0 11 5 11 10 0 6 -2 10 -4 10 -3 0
-8 -4 -11 -10z"/>
<path d="M7985 4589 c-4 -6 -5 -13 -2 -16 7 -7 27 6 27 18 0 12 -17 12 -25 -2z"/>
<path d="M5174 4547 c-8 -21 1 -47 16 -47 19 0 23 31 7 48 -15 14 -17 14 -23
-1z"/>
<path d="M5220 4539 c0 -11 4 -18 10 -14 5 3 7 12 3 20 -7 21 -13 19 -13 -6z"/>
<path d="M8021 4546 c-13 -16 2 -32 19 -21 6 3 10 1 10 -6 0 -7 3 -10 6 -6 8
7 -5 47 -15 47 -5 0 -14 -6 -20 -14z"/>
<path d="M3011 4498 c11 -21 49 -24 49 -4 0 8 -13 16 -29 18 -26 4 -29 2 -20
-14z"/>
<path d="M2950 4384 c0 -9 7 -14 17 -12 25 5 28 28 4 28 -12 0 -21 -6 -21 -16z"/>
<path d="M7690 4244 c0 -8 5 -12 10 -9 6 3 10 10 10 16 0 5 -4 9 -10 9 -5 0
-10 -7 -10 -16z"/>
<path d="M7596 4223 c-12 -12 -6 -43 9 -43 8 0 15 9 15 19 0 21 -13 34 -24 24z"/>
<path d="M6516 4194 c-9 -23 -7 -46 3 -40 11 7 21 56 11 56 -4 0 -11 -7 -14
-16z"/>
<path d="M7507 4173 c-10 -10 -8 -25 2 -19 5 4 21 2 35 -4 31 -11 45 4 17 19
-22 12 -45 14 -54 4z"/>
<path d="M2917 4164 c-8 -8 1 -24 14 -24 5 0 9 7 9 15 0 15 -12 20 -23 9z"/>
<path d="M3460 4118 c0 -16 4 -28 9 -28 18 0 20 17 6 36 -14 18 -14 18 -15 -8z"/>
<path d="M7590 4123 c0 -5 7 -17 15 -28 14 -18 16 -18 33 -2 15 16 15 19 2 27
-18 12 -50 13 -50 3z"/>
<path d="M2985 4060 c-4 -6 9 -10 32 -10 28 0 34 3 23 10 -20 13 -47 13 -55 0z"/>
<path d="M3025 4020 c-18 -8 -17 -9 8 -9 15 -1 27 4 27 9 0 12 -8 12 -35 0z"/>
<path d="M3325 4020 c-3 -5 1 -10 10 -10 9 0 13 5 10 10 -3 6 -8 10 -10 10 -2
0 -7 -4 -10 -10z"/>
<path d="M3160 3960 c0 -5 10 -10 23 -10 18 0 19 2 7 10 -19 13 -30 13 -30 0z"/>
<path d="M3080 3899 c0 -5 5 -7 10 -4 6 3 10 8 10 11 0 2 -4 4 -10 4 -5 0 -10
-5 -10 -11z"/>
<path d="M3660 3840 c-13 -8 -12 -10 3 -10 9 0 17 5 17 10 0 12 -1 12 -20 0z"/>
<path d="M3045 3770 c4 -6 11 -8 16 -5 14 9 11 15 -7 15 -8 0 -12 -5 -9 -10z"/>
<path d="M3591 3704 c0 -11 3 -14 6 -6 3 7 2 16 -1 19 -3 4 -6 -2 -5 -13z"/>
<path d="M3601 3581 c-11 -7 -9 -13 8 -30 11 -11 21 -25 21 -31 0 -5 6 -7 13
-4 11 4 11 12 3 39 -11 36 -21 41 -45 26z"/>
<path d="M3325 3561 c-3 -5 -1 -12 5 -16 5 -3 10 1 10 9 0 18 -6 21 -15 7z"/>
<path d="M3550 3530 c0 -5 5 -10 11 -10 5 0 7 5 4 10 -3 6 -8 10 -11 10 -2 0
-4 -4 -4 -10z"/>
<path d="M3585 3500 c-3 -5 3 -10 14 -10 12 0 21 5 21 10 0 6 -6 10 -14 10 -8
0 -18 -4 -21 -10z"/>
<path d="M3535 3480 c-3 -5 1 -10 10 -10 9 0 13 5 10 10 -3 6 -8 10 -10 10 -2
0 -7 -4 -10 -10z"/>
<path d="M3650 3470 c0 -5 5 -10 11 -10 5 0 7 5 4 10 -3 6 -8 10 -11 10 -2 0
-4 -4 -4 -10z"/>
<path d="M3590 3450 c0 -5 5 -10 10 -10 6 0 10 5 10 10 0 6 -4 10 -10 10 -5 0
-10 -4 -10 -10z"/>
<path d="M3345 3441 c-3 -5 -1 -12 5 -16 12 -7 30 2 30 16 0 12 -27 12 -35 0z"/>
<path d="M3550 3419 c0 -5 5 -7 10 -4 6 3 10 8 10 11 0 2 -4 4 -10 4 -5 0 -10
-5 -10 -11z"/>
<path d="M3491 3406 c-9 -10 -8 -15 5 -20 9 -3 20 -3 25 0 6 3 21 -6 34 -20
13 -14 18 -27 12 -29 -6 -2 -7 -9 -3 -15 10 -17 46 -15 46 2 0 7 7 19 15 26
23 19 18 30 -15 30 -17 0 -48 9 -69 20 -33 16 -41 17 -50 6z"/>
<path d="M3435 3401 c-3 -5 -1 -12 5 -16 5 -3 10 1 10 9 0 18 -6 21 -15 7z"/>
<path d="M3680 3402 c0 -5 11 -14 24 -20 19 -8 27 -8 35 2 6 7 8 16 4 19 -9
10 -63 8 -63 -1z"/>
<path d="M3715 3350 c-8 -13 4 -32 16 -25 12 8 12 35 0 35 -6 0 -13 -4 -16
-10z"/>
<path d="M3842 3155 c-10 -21 -9 -26 8 -35 12 -7 21 -7 25 0 3 5 2 10 -3 10
-5 0 -7 11 -4 25 6 32 -11 32 -26 0z"/>
<path d="M3970 3070 c0 -5 5 -10 10 -10 6 0 10 5 10 10 0 6 -4 10 -10 10 -5 0
-10 -4 -10 -10z"/>
<path d="M3910 2865 c0 -8 -6 -14 -12 -12 -8 1 -14 -10 -16 -27 -2 -18 0 -26
7 -21 6 3 11 12 11 20 0 7 10 15 22 17 30 4 37 38 9 38 -12 0 -21 -6 -21 -15z"/>
<path d="M4180 2865 c0 -9 6 -12 15 -9 8 4 12 10 9 15 -8 14 -24 10 -24 -6z"/>
<path d="M4335 2820 c3 -5 8 -10 11 -10 2 0 4 5 4 10 0 6 -5 10 -11 10 -5 0
-7 -4 -4 -10z"/>
<path d="M4090 2806 c0 -2 7 -6 15 -10 8 -3 15 -1 15 4 0 6 -7 10 -15 10 -8 0
-15 -2 -15 -4z"/>
<path d="M4440 2790 c0 -5 7 -10 15 -10 8 0 15 5 15 10 0 6 -7 10 -15 10 -8 0
-15 -4 -15 -10z"/>
<path d="M4126 2762 c3 -13 0 -29 -6 -37 -15 -18 -5 -35 20 -35 32 0 50 -11
50 -31 0 -11 7 -22 15 -25 8 -4 15 -12 15 -20 0 -11 19 -14 85 -14 78 0 85 -2
85 -20 0 -11 5 -20 10 -20 6 0 10 9 10 20 0 12 7 20 18 21 78 5 91 9 67 19
-11 5 -78 9 -148 9 l-129 1 7 30 c5 24 4 29 -8 24 -10 -3 -20 6 -31 27 -20 40
-21 36 12 53 l27 15 -27 1 c-16 0 -28 -4 -28 -10 0 -14 -37 -12 -44 3 -3 6 -3
2 0 -11z"/>
<path d="M4290 2740 l-35 -7 33 -2 c25 -1 32 -5 32 -21 0 -11 -7 -20 -15 -20
-8 0 -15 -7 -15 -15 0 -7 -8 -19 -17 -25 -16 -9 -15 -10 6 -8 13 2 29 12 35
23 6 11 14 22 17 25 13 11 28 48 22 54 -7 7 -13 6 -63 -4z"/>
<path d="M4440 2704 c0 -8 5 -12 10 -9 6 4 8 11 5 16 -9 14 -15 11 -15 -7z"/>
<path d="M4630 2674 c0 -8 5 -12 10 -9 6 3 10 10 10 16 0 5 -4 9 -10 9 -5 0
-10 -7 -10 -16z"/>
<path d="M4127 2664 c-10 -10 -9 -64 2 -64 5 0 11 -9 14 -20 7 -27 47 -27 47
0 0 11 -7 28 -15 37 -8 10 -20 26 -28 36 -7 10 -16 15 -20 11z"/>
<path d="M4353 2643 c9 -2 23 -2 30 0 6 3 -1 5 -18 5 -16 0 -22 -2 -12 -5z"/>
<path d="M4448 2543 c6 -2 18 -2 25 0 6 3 1 5 -13 5 -14 0 -19 -2 -12 -5z"/>
<path d="M4850 2472 c0 -7 5 -10 12 -6 6 4 17 -1 25 -11 12 -18 13 -17 13 6 0
19 -5 24 -25 24 -14 0 -25 -6 -25 -13z"/>
<path d="M5105 2451 c19 -38 35 -48 35 -22 0 33 -11 51 -31 51 -18 0 -19 -2
-4 -29z"/>
<path d="M4868 2390 c-34 -19 -35 -27 -3 -42 31 -14 37 -8 33 29 -3 29 -3 29
-30 13z"/>
<path d="M5330 2370 c0 -5 4 -10 9 -10 6 0 13 5 16 10 3 6 -1 10 -9 10 -9 0
-16 -4 -16 -10z"/>
<path d="M5068 2343 c6 -2 18 -2 25 0 6 3 1 5 -13 5 -14 0 -19 -2 -12 -5z"/>
<path d="M4957 2270 c-3 -36 -6 -77 -6 -92 -1 -26 -4 -28 -38 -28 -26 0 -34
-3 -27 -10 7 -7 32 -8 75 -2 35 5 52 10 36 11 -26 1 -27 3 -24 44 2 23 1 65
-3 92 l-6 50 -7 -65z"/>
<path d="M5210 2321 c0 -6 5 -13 10 -16 6 -3 10 1 10 9 0 9 -4 16 -10 16 -5 0
-10 -4 -10 -9z"/>
<path d="M4992 2229 c5 -17 48 -25 48 -10 0 6 -4 11 -9 11 -5 0 -17 3 -27 7
-12 4 -15 2 -12 -8z"/>
<path d="M4454 2224 c-9 -4 -9 -11 0 -29 12 -27 36 -34 36 -11 0 8 3 21 6 30
6 16 -16 21 -42 10z"/>
<path d="M4886 2201 c-3 -5 0 -14 8 -20 10 -9 15 -8 19 3 9 22 -15 37 -27 17z"/>
<path d="M5008 2061 c-8 -55 -4 -73 10 -55 4 5 5 32 2 59 l-5 50 -7 -54z"/>
<path d="M5070 2088 c0 -19 2 -20 10 -8 13 19 13 30 0 30 -5 0 -10 -10 -10
-22z"/>
<path d="M5750 2055 c-17 -21 -8 -28 15 -11 11 8 14 15 8 19 -6 4 -16 0 -23
-8z"/>
<path d="M5806 2032 c-2 -4 -1 -14 5 -22 7 -12 9 -10 9 8 0 23 -5 28 -14 14z"/>
<path d="M5933 2025 c-8 -23 17 -37 40 -22 26 17 22 31 -8 35 -16 2 -27 -2
-32 -13z"/>
<path d="M4930 2010 c0 -5 9 -10 20 -10 11 0 20 -5 20 -12 0 -6 2 -9 5 -6 3 3
3 13 -1 22 -7 17 -44 23 -44 6z"/>
<path d="M5735 1980 c-12 -13 -15 -27 -11 -45 5 -18 2 -25 -8 -25 -21 0 -30
-20 -16 -33 15 -16 40 17 40 54 0 34 19 48 35 25 11 -15 13 -14 19 6 9 35 8
38 -17 38 -13 0 -32 -9 -42 -20z"/>
<path d="M5845 1967 c-8 -28 -3 -42 12 -36 5 2 6 18 2 34 l-6 30 -8 -28z"/>
<path d="M5040 1958 c0 -15 -6 -29 -12 -31 -8 -3 -4 -6 7 -7 37 -4 70 2 77 14
6 8 8 8 8 -1 0 -21 26 -14 27 7 2 17 -4 20 -41 20 -23 0 -47 5 -54 12 -9 9
-12 6 -12 -14z"/>
<path d="M5641 1884 c0 -11 3 -14 6 -6 3 7 2 16 -1 19 -3 4 -6 -2 -5 -13z"/>
<path d="M5550 1839 c0 -11 5 -17 10 -14 6 3 10 13 10 21 0 8 -4 14 -10 14 -5
0 -10 -9 -10 -21z"/>
<path d="M2214 5426 c-3 -13 -4 -35 -1 -47 3 -19 5 -18 6 7 0 18 8 34 16 38
19 7 19 26 0 26 -8 0 -17 -11 -21 -24z"/>
<path d="M2230 5355 c0 -8 7 -15 16 -15 14 0 14 3 4 15 -7 8 -14 15 -16 15 -2
0 -4 -7 -4 -15z"/>
<path d="M2256 5254 c-4 -10 -1 -14 6 -12 15 5 23 28 10 28 -5 0 -13 -7 -16
-16z"/>
<path d="M2180 5209 c0 -14 40 -16 57 -4 16 12 13 13 -20 12 -20 0 -37 -4 -37
-8z"/>
<path d="M8803 3675 c-8 -9 -9 -16 -3 -20 6 -3 13 1 16 10 9 21 2 26 -13 10z"/>
<path d="M7378 3323 c7 -3 16 -2 19 1 4 3 -2 6 -13 5 -11 0 -14 -3 -6 -6z"/>
<path d="M7370 3299 c0 -4 7 -9 15 -13 9 -3 15 0 15 8 0 7 -7 13 -15 13 -8 0
-15 -4 -15 -8z"/>
<path d="M7375 3232 c-25 -18 -46 -50 -36 -56 10 -6 61 41 61 56 0 10 -12 10
-25 0z"/>
<path d="M1765 6160 c3 -5 8 -10 11 -10 2 0 4 5 4 10 0 6 -5 10 -11 10 -5 0
-7 -4 -4 -10z"/>
<path d="M1808 6123 c6 -2 12 -16 12 -29 0 -13 9 -29 20 -36 11 -7 20 -20 20
-30 0 -9 14 -25 30 -35 17 -9 30 -24 30 -33 0 -8 4 -21 9 -29 6 -10 9 1 9 32
-1 26 -5 47 -10 47 -4 0 -8 11 -8 25 0 19 -10 29 -40 45 -23 12 -43 27 -47 35
-3 8 -13 15 -22 14 -10 0 -11 -2 -3 -6z"/>
<path d="M2010 6046 c0 -10 -9 -20 -20 -23 -10 -3 -22 -13 -25 -23 -8 -24 4
-50 20 -44 14 6 41 91 31 101 -3 3 -6 -2 -6 -11z"/>
<path d="M1970 5932 c0 -7 -5 -10 -11 -6 -8 5 -10 -1 -5 -19 3 -14 2 -27 -5
-29 -5 -2 -7 -11 -4 -21 4 -9 10 -15 14 -13 4 3 13 1 21 -5 10 -6 11 -9 3 -9
-7 0 -13 -7 -13 -16 0 -13 3 -14 15 -4 10 8 13 25 10 56 -3 41 -24 95 -25 66z"/>
<path d="M2141 5774 c-9 -11 -10 -19 -3 -26 14 -14 32 -1 32 23 0 23 -10 24
-29 3z"/>
<path d="M2060 5580 c0 -5 5 -10 11 -10 5 0 7 5 4 10 -3 6 -8 10 -11 10 -2 0
-4 -4 -4 -10z"/>
<path d="M1935 5450 c-3 -5 -2 -10 4 -10 5 0 13 5 16 10 3 6 2 10 -4 10 -5 0
-13 -4 -16 -10z"/>
<path d="M3335 2010 c-8 -12 26 -59 43 -60 6 0 12 11 12 25 0 14 6 25 13 25 8
0 7 4 -3 10 -20 13 -57 13 -65 0z"/>
<path d="M3392 1904 c1 -9 9 -19 16 -22 9 -3 13 2 10 14 -1 9 -9 19 -16 22 -9
3 -13 -2 -10 -14z"/>
<path d="M3190 1820 c0 -5 5 -10 10 -10 6 0 10 5 10 10 0 6 -4 10 -10 10 -5 0
-10 -4 -10 -10z"/>
<path d="M3677 1630 c6 -24 19 -26 27 -4 9 23 8 24 -13 24 -14 0 -18 -5 -14
-20z"/>
<path d="M3750 1621 c0 -11 5 -23 10 -26 6 -4 10 5 10 19 0 14 -4 26 -10 26
-5 0 -10 -9 -10 -19z"/>
<path d="M3070 1485 c-14 -16 -10 -18 14 -9 9 3 16 10 16 15 0 14 -16 11 -30
-6z"/>
<path d="M3080 1363 c0 -5 5 -15 10 -23 7 -11 12 -12 21 -3 6 6 8 16 5 22 -8
12 -36 15 -36 4z"/>
<path d="M2776 1341 c-4 -5 -4 -15 -1 -23 3 -8 -4 -24 -15 -36 -12 -12 -18
-27 -14 -33 4 -6 9 -7 13 -2 3 5 23 19 44 32 38 23 54 21 79 -14 11 -14 10 -1
-2 30 -7 19 -15 25 -26 21 -11 -4 -18 1 -21 14 -6 21 -47 29 -57 11z"/>
<path d="M2995 1270 c3 -5 8 -10 11 -10 2 0 4 5 4 10 0 6 -5 10 -11 10 -5 0
-7 -4 -4 -10z"/>
<path d="M2730 1220 c-22 -7 -21 -8 13 -9 23 -1 36 3 32 9 -7 11 -10 11 -45 0z"/>
<path d="M2797 1176 c-4 -10 -1 -13 9 -9 7 3 14 9 14 14 0 14 -17 10 -23 -5z"/>
<path d="M2873 1183 c-21 -8 -15 -22 7 -16 11 3 20 9 20 14 0 10 -8 10 -27 2z"/>
<path d="M2925 1140 c-4 -6 8 -10 30 -10 22 0 34 4 30 10 -3 6 -17 10 -30 10
-13 0 -27 -4 -30 -10z"/>
<path d="M2815 1120 c-3 -5 3 -10 14 -10 12 0 21 5 21 10 0 6 -6 10 -14 10 -8
0 -18 -4 -21 -10z"/>
<path d="M2690 1087 c0 -13 5 -28 12 -35 17 -17 55 -15 62 4 9 22 8 24 -8 18
-8 -3 -24 4 -35 15 -27 27 -31 26 -31 -2z"/>
<path d="M2855 1080 c3 -5 16 -10 28 -10 18 0 19 2 7 10 -20 13 -43 13 -35 0z"/>
<path d="M2943 1083 c9 -2 23 -2 30 0 6 3 -1 5 -18 5 -16 0 -22 -2 -12 -5z"/>
<path d="M2818 1033 c7 -3 16 -2 19 1 4 3 -2 6 -13 5 -11 0 -14 -3 -6 -6z"/>
<path d="M4460 1030 c0 -5 9 -10 20 -10 11 0 20 5 20 10 0 6 -9 10 -20 10 -11
0 -20 -4 -20 -10z"/>
<path d="M2857 985 c3 -14 10 -25 15 -25 13 0 6 43 -8 47 -7 2 -10 -6 -7 -22z"/>
<path d="M2797 904 c-10 -11 3 -24 23 -24 13 0 17 5 14 15 -6 15 -26 20 -37 9z"/>
<path d="M4725 900 c-3 -5 1 -10 10 -10 9 0 13 5 10 10 -3 6 -8 10 -10 10 -2
0 -7 -4 -10 -10z"/>
<path d="M4820 900 l-25 -8 28 -1 c15 -1 27 4 27 9 0 6 -1 10 -2 9 -2 -1 -14
-5 -28 -9z"/>
<path d="M2918 883 c6 -2 18 -2 25 0 6 3 1 5 -13 5 -14 0 -19 -2 -12 -5z"/>
<path d="M5210 855 c0 -8 5 -15 10 -15 6 0 10 7 10 15 0 8 -4 15 -10 15 -5 0
-10 -7 -10 -15z"/>
<path d="M2850 840 c0 -5 9 -10 20 -10 11 0 20 5 20 10 0 6 -9 10 -20 10 -11
0 -20 -4 -20 -10z"/>
<path d="M1355 660 c-3 -5 1 -10 10 -10 9 0 13 5 10 10 -3 6 -8 10 -10 10 -2
0 -7 -4 -10 -10z"/>
<path d="M5897 643 c-14 -13 -6 -23 18 -23 16 0 25 6 25 15 0 15 -31 21 -43 8z"/>
<path d="M2280 569 c0 -18 2 -19 15 -9 8 7 15 16 15 21 0 5 -7 9 -15 9 -9 0
-15 -9 -15 -21z"/>
<path d="M2410 574 c0 -9 5 -14 12 -12 18 6 21 28 4 28 -9 0 -16 -7 -16 -16z"/>
<path d="M2360 571 c0 -17 12 -41 21 -41 5 0 9 11 9 25 0 16 -6 25 -15 25 -8
0 -15 -4 -15 -9z"/>
<path d="M1035 550 c-16 -7 -17 -9 -3 -9 9 -1 20 4 23 9 7 11 7 11 -20 0z"/>
<path d="M2462 538 c5 -15 28 -18 29 -3 0 6 -7 12 -17 13 -10 3 -15 -1 -12
-10z"/>
<path d="M6000 530 c0 -5 5 -10 11 -10 5 0 7 5 4 10 -3 6 -8 10 -11 10 -2 0
-4 -4 -4 -10z"/>
<path d="M1070 516 c0 -9 7 -16 16 -16 17 0 14 22 -4 28 -7 2 -12 -3 -12 -12z"/>
<path d="M1140 460 c0 -19 3 -21 12 -12 9 9 9 15 0 24 -9 9 -12 7 -12 -12z"/>
<path d="M2413 428 c-30 -15 -29 -28 2 -28 18 0 25 5 25 20 0 11 -1 20 -2 19
-2 0 -13 -5 -25 -11z"/>
<path d="M2500 413 c0 -22 2 -25 10 -13 13 20 13 40 0 40 -5 0 -10 -12 -10
-27z"/>
<path d="M1184 365 c-4 -8 -14 -15 -23 -15 -32 0 -41 -14 -27 -41 8 -16 10
-34 4 -54 -5 -17 -6 -45 -3 -63 l6 -33 19 24 c18 23 19 28 5 61 -14 32 -14 36
0 36 8 0 15 6 16 13 0 6 4 2 9 -10 8 -20 12 -21 39 -10 22 8 31 18 31 35 0 21
-3 22 -35 16 -24 -4 -35 -2 -35 5 0 7 5 9 10 6 18 -11 31 5 20 26 -13 23 -28
25 -36 4z"/>
<path d="M2520 350 c0 -11 5 -20 10 -20 6 0 10 9 10 20 0 11 -4 20 -10 20 -5
0 -10 -9 -10 -20z"/>
<path d="M5940 345 c0 -9 5 -15 11 -13 6 2 11 8 11 13 0 5 -5 11 -11 13 -6 2
-11 -4 -11 -13z"/>
<path d="M5996 313 c-6 -14 -5 -15 5 -6 7 7 10 15 7 18 -3 3 -9 -2 -12 -12z"/>
<path d="M2600 309 c0 -4 -8 -10 -17 -12 -10 -3 1 -5 25 -6 46 -1 58 14 17 21
-14 3 -25 2 -25 -3z"/>
<path d="M6199 293 c-1 -5 0 -16 1 -26 1 -10 -4 -25 -10 -33 -10 -11 -10 -14
1 -14 8 0 4 -8 -10 -19 -32 -24 -14 -34 47 -25 54 9 74 7 84 -9 5 -9 10 -9 19
0 18 18 1 33 -36 33 -48 0 -68 9 -55 25 8 9 6 17 -5 28 -8 9 -15 23 -15 31 0
16 -19 23 -21 9z"/>
<path d="M6040 260 c0 -11 5 -20 10 -20 6 0 10 9 10 20 0 11 -4 20 -10 20 -5
0 -10 -9 -10 -20z"/>
<path d="M5925 261 c-3 -5 -1 -12 5 -16 12 -7 30 2 30 16 0 12 -27 12 -35 0z"/>
<path d="M6110 260 c0 -5 5 -10 10 -10 6 0 10 5 10 10 0 6 -4 10 -10 10 -5 0
-10 -4 -10 -10z"/>
<path d="M1210 229 c0 -5 5 -7 10 -4 6 3 10 8 10 11 0 2 -4 4 -10 4 -5 0 -10
-5 -10 -11z"/>
<path d="M2407 130 c5 -20 15 -25 26 -13 8 7 -11 33 -23 33 -5 0 -6 -9 -3 -20z"/>
<path d="M6091 114 c0 -11 3 -14 6 -6 3 7 2 16 -1 19 -3 4 -6 -2 -5 -13z"/>
<path d="M2575 90 c-3 -5 -2 -10 4 -10 5 0 13 5 16 10 3 6 2 10 -4 10 -5 0
-13 -4 -16 -10z"/>
<path d="M2815 90 c4 -6 11 -8 16 -5 14 9 11 15 -7 15 -8 0 -12 -5 -9 -10z"/>
<path d="M2867 44 c-15 -15 -7 -44 13 -44 11 0 20 4 20 8 0 15 -26 43 -33 36z"/>
<path d="M2946 33 c-12 -12 -6 -33 9 -33 8 0 15 6 15 14 0 17 -14 28 -24 19z"/>
<path d="M2570 10 c0 -5 5 -10 11 -10 5 0 7 5 4 10 -3 6 -8 10 -11 10 -2 0 -4
-4 -4 -10z"/>
</g>
</svg>
